<svg width="98" height="62" viewBox="0 0 98 62" fill="none" xmlns="http://www.w3.org/2000/svg">
<path d="M48.1194 3.87558L46.7663 29.3397L75.921 29.4162L59.8286 51.2401L35.398 48.1747L26.7128 24.8281L48.1194 3.87558Z" fill="#EBA1B4"/>
<path d="M16.6283 25.9606C16.1803 25.7846 15.7403 25.6566 15.3083 25.5766C14.8923 25.4966 14.4763 25.4566 14.0603 25.4566C13.2763 25.4566 12.6043 25.5766 12.0443 25.8166C11.4843 26.0406 11.0523 26.4086 10.7483 26.9206C10.4603 27.4326 10.3163 28.1126 10.3163 28.9606V36.8326C10.3163 37.6646 10.4443 38.3446 10.7003 38.8726C10.9563 39.3846 11.3483 39.7606 11.8763 40.0006C12.4043 40.2246 13.0683 40.3366 13.8683 40.3366C14.1883 40.3366 14.5243 40.3126 14.8763 40.2646C15.2443 40.2006 15.6363 40.1206 16.0523 40.0246C16.4683 39.9126 16.9003 39.7846 17.3483 39.6406L17.6363 40.7446C16.9643 41.0006 16.3003 41.1926 15.6443 41.3206C15.0043 41.4646 14.3803 41.5366 13.7723 41.5366C12.7643 41.5366 11.9003 41.3766 11.1803 41.0566C10.4603 40.7206 9.90826 40.2086 9.52426 39.5206C9.14026 38.8326 8.94826 37.9526 8.94826 36.8806V29.0566C8.94826 27.9366 9.15626 27.0246 9.57226 26.3206C9.98826 25.6166 10.5483 25.0966 11.2523 24.7606C11.9563 24.4246 12.7483 24.2566 13.6283 24.2566C14.2523 24.2566 14.8523 24.3206 15.4283 24.4486C16.0043 24.5766 16.5403 24.7766 17.0363 25.0486L16.6283 25.9606ZM26.6333 40.1446C26.3773 40.4486 26.0653 40.7046 25.6973 40.9126C25.3293 41.1206 24.9373 41.2726 24.5213 41.3686C24.1053 41.4806 23.6973 41.5366 23.2973 41.5366C22.7693 41.5366 22.2813 41.4806 21.8333 41.3686C21.4013 41.2726 21.0093 41.1206 20.6573 40.9126C20.3213 40.7046 20.0333 40.4406 19.7933 40.1206C19.5693 39.8006 19.3933 39.4246 19.2653 38.9926C19.1533 38.5606 19.0973 38.0726 19.0973 37.5286V29.2726H20.4653V37.1926C20.4653 37.9286 20.5773 38.5206 20.8013 38.9686C21.0253 39.4166 21.3533 39.7446 21.7853 39.9526C22.2173 40.1446 22.7373 40.2406 23.3453 40.2406C23.8253 40.2406 24.2653 40.1606 24.6653 40.0006C25.0653 39.8406 25.4093 39.6166 25.6973 39.3286C26.0013 39.0406 26.2333 38.7126 26.3933 38.3446C26.5533 37.9766 26.6333 37.5766 26.6333 37.1446V29.2726H27.9773V41.2966H26.6333V40.1446ZM37.0718 30.7606C36.8638 30.6166 36.6238 30.5046 36.3518 30.4246C36.0958 30.3286 35.8238 30.2566 35.5358 30.2086C35.2638 30.1606 34.9918 30.1366 34.7198 30.1366C34.3998 30.1366 34.0638 30.1766 33.7118 30.2566C33.3758 30.3206 33.0638 30.4326 32.7758 30.5926C32.4878 30.7366 32.2558 30.9286 32.0798 31.1686C31.9038 31.4086 31.8158 31.6966 31.8158 32.0326C31.8158 32.4326 31.9358 32.7686 32.1758 33.0406C32.4318 33.3126 32.7598 33.5606 33.1598 33.7846C33.5598 33.9926 33.9998 34.1926 34.4798 34.3846C34.9598 34.5606 35.4398 34.7606 35.9198 34.9846C36.4158 35.1926 36.8638 35.4406 37.2638 35.7286C37.6638 36.0166 37.9838 36.3686 38.2238 36.7846C38.4798 37.1846 38.6078 37.6806 38.6078 38.2726C38.6078 38.8486 38.4878 39.3526 38.2478 39.7846C38.0078 40.2166 37.6878 40.5766 37.2878 40.8646C36.8878 41.1526 36.4398 41.3686 35.9438 41.5126C35.4638 41.6566 34.9678 41.7286 34.4558 41.7286C33.6078 41.7286 32.7838 41.5446 31.9838 41.1766C31.1838 40.8086 30.5038 40.3046 29.9438 39.6646L30.6878 38.8726C31.0558 39.2246 31.4318 39.5206 31.8158 39.7606C32.1998 40.0006 32.6078 40.1846 33.0398 40.3126C33.4878 40.4246 33.9598 40.4806 34.4558 40.4806C34.7598 40.4806 35.0798 40.4406 35.4158 40.3606C35.7518 40.2806 36.0638 40.1526 36.3518 39.9766C36.6558 39.7846 36.8958 39.5526 37.0718 39.2806C37.2638 39.0086 37.3598 38.6806 37.3598 38.2966C37.3598 37.8646 37.2318 37.4966 36.9758 37.1926C36.7358 36.8726 36.4158 36.6006 36.0158 36.3766C35.6158 36.1366 35.1678 35.9206 34.6718 35.7286C34.1918 35.5366 33.7038 35.3366 33.2078 35.1286C32.7278 34.9206 32.2878 34.6806 31.8878 34.4086C31.4878 34.1366 31.1598 33.8166 30.9038 33.4486C30.6638 33.0646 30.5438 32.6086 30.5438 32.0806C30.5438 31.5686 30.6558 31.1286 30.8798 30.7606C31.1038 30.3766 31.3998 30.0566 31.7678 29.8006C32.1518 29.5286 32.5758 29.3286 33.0398 29.2006C33.5038 29.0726 33.9758 29.0086 34.4558 29.0086C34.7758 29.0086 35.1038 29.0326 35.4398 29.0806C35.7758 29.1126 36.1278 29.1926 36.4958 29.3206C36.8638 29.4326 37.2398 29.6086 37.6238 29.8486L37.0718 30.7606ZM47.3843 30.7606C47.1763 30.6166 46.9363 30.5046 46.6643 30.4246C46.4083 30.3286 46.1363 30.2566 45.8483 30.2086C45.5763 30.1606 45.3043 30.1366 45.0323 30.1366C44.7123 30.1366 44.3763 30.1766 44.0243 30.2566C43.6883 30.3206 43.3763 30.4326 43.0883 30.5926C42.8003 30.7366 42.5683 30.9286 42.3923 31.1686C42.2163 31.4086 42.1283 31.6966 42.1283 32.0326C42.1283 32.4326 42.2483 32.7686 42.4883 33.0406C42.7443 33.3126 43.0723 33.5606 43.4723 33.7846C43.8723 33.9926 44.3123 34.1926 44.7923 34.3846C45.2723 34.5606 45.7523 34.7606 46.2323 34.9846C46.7283 35.1926 47.1763 35.4406 47.5763 35.7286C47.9763 36.0166 48.2963 36.3686 48.5363 36.7846C48.7923 37.1846 48.9203 37.6806 48.9203 38.2726C48.9203 38.8486 48.8003 39.3526 48.5603 39.7846C48.3203 40.2166 48.0003 40.5766 47.6003 40.8646C47.2003 41.1526 46.7523 41.3686 46.2563 41.5126C45.7763 41.6566 45.2803 41.7286 44.7683 41.7286C43.9203 41.7286 43.0963 41.5446 42.2963 41.1766C41.4963 40.8086 40.8163 40.3046 40.2563 39.6646L41.0003 38.8726C41.3683 39.2246 41.7443 39.5206 42.1283 39.7606C42.5123 40.0006 42.9203 40.1846 43.3523 40.3126C43.8003 40.4246 44.2723 40.4806 44.7683 40.4806C45.0723 40.4806 45.3923 40.4406 45.7283 40.3606C46.0643 40.2806 46.3763 40.1526 46.6643 39.9766C46.9683 39.7846 47.2083 39.5526 47.3843 39.2806C47.5763 39.0086 47.6723 38.6806 47.6723 38.2966C47.6723 37.8646 47.5443 37.4966 47.2883 37.1926C47.0483 36.8726 46.7283 36.6006 46.3283 36.3766C45.9283 36.1366 45.4803 35.9206 44.9843 35.7286C44.5043 35.5366 44.0163 35.3366 43.5203 35.1286C43.0403 34.9206 42.6003 34.6806 42.2003 34.4086C41.8003 34.1366 41.4723 33.8166 41.2163 33.4486C40.9763 33.0646 40.8563 32.6086 40.8563 32.0806C40.8563 31.5686 40.9683 31.1286 41.1923 30.7606C41.4163 30.3766 41.7123 30.0566 42.0803 29.8006C42.4643 29.5286 42.8883 29.3286 43.3523 29.2006C43.8163 29.0726 44.2883 29.0086 44.7683 29.0086C45.0883 29.0086 45.4163 29.0326 45.7523 29.0806C46.0883 29.1126 46.4403 29.1926 46.8083 29.3206C47.1763 29.4326 47.5523 29.6086 47.9363 29.8486L47.3843 30.7606ZM56.5459 24.4966C57.3139 24.4966 57.9939 24.5926 58.5859 24.7846C59.1779 24.9606 59.6739 25.2566 60.0739 25.6726C60.4899 26.0886 60.8019 26.6486 61.0099 27.3526C61.2179 28.0406 61.3219 28.8966 61.3219 29.9206C61.3219 30.8326 61.2419 31.6166 61.0819 32.2726C60.9219 32.9286 60.6739 33.4726 60.3379 33.9046C60.0179 34.3366 59.6019 34.6806 59.0899 34.9366L61.4179 41.2966H60.0499L57.8659 35.2966C57.7379 35.3286 57.6019 35.3526 57.4579 35.3686C57.3139 35.3846 57.1619 35.4006 57.0019 35.4166C56.8579 35.4166 56.7059 35.4166 56.5459 35.4166H52.2499V41.2966H50.8819V24.4966H56.5459ZM56.6659 34.0966C57.1299 34.0966 57.5539 34.0486 57.9379 33.9526C58.3379 33.8566 58.6899 33.6726 58.9939 33.4006C59.2979 33.1126 59.5299 32.6886 59.6899 32.1286C59.8659 31.5686 59.9539 30.8326 59.9539 29.9206C59.9539 29.0726 59.8659 28.3766 59.6899 27.8326C59.5299 27.2886 59.2979 26.8726 58.9939 26.5846C58.7059 26.2806 58.3619 26.0726 57.9619 25.9606C57.5619 25.8326 57.1299 25.7686 56.6659 25.7686H52.2499V34.0966H56.6659ZM70.4179 32.8966C70.4179 32.3046 70.3139 31.8246 70.1059 31.4566C69.9139 31.0886 69.6419 30.8086 69.2899 30.6166C68.9539 30.4246 68.5619 30.2966 68.1139 30.2326C67.6659 30.1526 67.2019 30.1126 66.7219 30.1126L66.7699 29.0806C67.7459 29.0806 68.5539 29.1766 69.1939 29.3686C69.8339 29.5446 70.3379 29.8406 70.7059 30.2566C71.0899 30.6566 71.3619 31.2006 71.5219 31.8886C71.6819 32.5606 71.7619 33.3926 71.7619 34.3846V41.2966C71.7779 41.2966 71.6899 41.3046 71.4979 41.3206C71.3219 41.3366 71.0819 41.3526 70.7779 41.3686C70.4899 41.4006 70.1699 41.4246 69.8179 41.4406C69.4819 41.4726 69.1459 41.4966 68.8099 41.5126C68.4899 41.5286 68.2099 41.5366 67.9699 41.5366C67.2019 41.5526 66.4819 41.5046 65.8099 41.3926C65.1539 41.2806 64.5779 41.0726 64.0819 40.7686C63.6019 40.4486 63.2179 40.0006 62.9299 39.4246C62.6579 38.8486 62.5219 38.1206 62.5219 37.2406V35.2486C62.5219 34.5766 62.6179 34.0086 62.8099 33.5446C63.0179 33.0806 63.2979 32.7126 63.6499 32.4406C64.0019 32.1526 64.3939 31.9446 64.8259 31.8166C65.2739 31.6886 65.7379 31.6246 66.2179 31.6246C66.7459 31.6246 67.2579 31.6886 67.7539 31.8166C68.2499 31.9286 68.7219 32.0806 69.1699 32.2726C69.6339 32.4646 70.0499 32.6726 70.4179 32.8966ZM70.4179 34.0246C70.0019 33.8006 69.5539 33.5926 69.0739 33.4006C68.5939 33.2086 68.1059 33.0566 67.6099 32.9446C67.1139 32.8326 66.6099 32.7766 66.0979 32.7766C65.8899 32.7766 65.6579 32.8086 65.4019 32.8726C65.1459 32.9366 64.8979 33.0566 64.6579 33.2326C64.4179 33.3926 64.2179 33.6406 64.0579 33.9766C63.9139 34.3126 63.8419 34.7526 63.8419 35.2966V37.0726C63.8419 37.6486 63.8979 38.1526 64.0099 38.5846C64.1379 39.0166 64.3459 39.3766 64.6339 39.6646C64.9379 39.9366 65.3539 40.1366 65.8819 40.2646C66.4099 40.3766 67.0739 40.4166 67.8739 40.3846C68.1939 40.3686 68.4819 40.3526 68.7379 40.3366C69.0099 40.3206 69.2499 40.3046 69.4579 40.2886C69.6659 40.2566 69.8419 40.2406 69.9859 40.2406C70.1299 40.2246 70.2339 40.2166 70.2979 40.2166C70.3779 40.2006 70.4179 40.1926 70.4179 40.1926V34.0246ZM81.4481 29.3206L84.0881 39.9286L87.3041 29.3206H88.7201L84.9761 41.2966H83.1281L80.7281 31.5766L78.2801 41.2966H76.4081L72.7601 29.3206H74.1521L77.3921 39.9286L80.0801 29.3206H81.4481Z" fill="black"/>
</svg>
