<svg width="90" height="88" viewBox="0 0 90 88" fill="none" xmlns="http://www.w3.org/2000/svg">
<path d="M19.7668 27.8486C29.0446 13.2255 48.42 8.89235 63.0431 18.1701C77.6662 27.4479 81.9993 46.8234 72.7215 61.4465C63.4437 76.0696 44.0683 80.4027 29.4452 71.1249C14.8221 61.8471 10.489 42.4717 19.7668 27.8486Z" fill="#DE30F4"/>
<g filter="url(#filter0_i_175_224)">
<circle cx="48.2692" cy="50.6776" r="21.0622" transform="rotate(-147.606 48.2692 50.6776)" fill="#48D1FB"/>
</g>
<g filter="url(#filter1_b_175_224)">
<ellipse cx="48.401" cy="50.5" rx="21.1786" ry="21.4995" transform="rotate(-147.606 48.401 50.5)" fill="#48D1FB" fill-opacity="0.1"/>
</g>
<g filter="url(#filter2_d_175_224)">
<path d="M19.1422 41.9452C18.8977 42.1984 18.6714 42.5005 18.4633 42.8514C18.2471 43.1852 18.0708 43.526 17.9344 43.8738C17.7318 44.4103 17.6755 44.8922 17.7656 45.3196C17.8556 45.747 18.0669 46.1109 18.3994 46.4115C18.7193 46.7077 19.1349 46.9526 19.6463 47.1465L22.1114 48.034C22.5517 48.1887 22.9509 48.2795 23.3089 48.3064C23.6587 48.3162 23.9696 48.2559 24.2416 48.1254C24.518 47.9822 24.7596 47.7774 24.9663 47.5109C25.1775 47.2318 25.3582 46.8784 25.5085 46.4507C25.6013 46.1865 25.6857 45.9264 25.7615 45.6704C25.8247 45.41 25.8751 45.1662 25.9125 44.9391C25.9499 44.712 25.9759 44.5374 25.9905 44.4154C26.0096 44.2807 26.0169 44.2197 26.0125 44.2323L27.1931 44.3716C27.1567 44.7969 27.0885 45.2322 26.9885 45.6776C26.9011 46.1274 26.7782 46.5577 26.6197 46.9684C26.3552 47.6809 26.0083 48.2657 25.5793 48.7226C25.1376 49.1751 24.6121 49.4639 24.0029 49.589C23.381 49.7096 22.6676 49.6285 21.8625 49.3456L19.1265 48.3841C18.4095 48.1322 17.827 47.7791 17.3789 47.3248C16.9308 46.8706 16.6464 46.3325 16.5258 45.7107C16.397 45.0719 16.4759 44.3647 16.7625 43.5892C16.9128 43.1615 17.1197 42.7537 17.3832 42.3658C17.6512 41.9653 17.9417 41.601 18.2549 41.273L19.1422 41.9452Z" fill="#48D1FB"/>
</g>
<g filter="url(#filter3_d_175_224)">
<path d="M29.7601 37.4479C29.8407 37.7302 29.8636 38.0376 29.8287 38.3699C29.8015 38.6912 29.7261 39.0118 29.6027 39.3316C29.4793 39.6514 29.3268 39.9431 29.1451 40.2065C28.9104 40.5467 28.658 40.8423 28.3877 41.0932C28.1175 41.3442 27.837 41.5395 27.5463 41.6791C27.2447 41.8112 26.9273 41.8839 26.5942 41.8971C26.2611 41.9103 25.9162 41.8587 25.5592 41.7421C25.2023 41.6255 24.8318 41.4347 24.4476 41.1697L18.7841 37.2635L19.5562 36.144L25.0222 39.9139C25.4832 40.2319 25.9001 40.4141 26.2729 40.4607C26.6457 40.5073 26.9888 40.4443 27.3022 40.2717C27.6047 40.0915 27.8883 39.8094 28.1533 39.4252C28.3577 39.1289 28.4976 38.8204 28.5729 38.4999C28.6372 38.1717 28.646 37.8538 28.599 37.5461C28.5487 37.2198 28.4424 36.9278 28.28 36.67C28.1252 36.4013 27.9051 36.1685 27.6198 35.9717L22.2361 32.2585L22.9855 31.1719L31.2339 36.8609L30.4845 37.9475L29.7601 37.4479Z" fill="#48D1FB"/>
</g>
<g filter="url(#filter4_d_175_224)">
<path d="M31.1218 25.4839C30.9228 25.4637 30.7148 25.4802 30.4977 25.5332C30.2805 25.5862 30.0646 25.6541 29.8498 25.7369C29.635 25.8197 29.4306 25.9196 29.2365 26.0366C29.0309 26.1605 28.8277 26.3141 28.6269 26.4975C28.4306 26.6625 28.2663 26.8549 28.1342 27.0747C28.0065 27.2762 27.9338 27.4913 27.916 27.72C27.8913 27.9373 27.9443 28.1544 28.0751 28.3714C28.2334 28.634 28.4533 28.805 28.7347 28.8845C29.0092 28.9525 29.3283 28.9782 29.6918 28.9614C30.0485 28.9332 30.4337 28.8879 30.8475 28.8253C31.2543 28.7512 31.6681 28.6887 32.0887 28.6375C32.5208 28.5794 32.9358 28.5706 33.3337 28.6109C33.7317 28.6512 34.1058 28.7682 34.4561 28.9619C34.8063 29.1555 35.1088 29.4636 35.3635 29.8861C35.6182 30.3086 35.7563 30.7313 35.7777 31.1543C35.7923 31.5659 35.7222 31.9662 35.5675 32.3553C35.406 32.7329 35.1791 33.0798 34.8871 33.3959C34.5951 33.7121 34.2663 33.9803 33.9009 34.2006C33.2843 34.5723 32.6114 34.7989 31.8821 34.8805C31.1528 34.962 30.4541 34.9006 29.786 34.6961L30.0239 33.6186C30.4127 33.6956 30.7844 33.744 31.1389 33.7638C31.4979 33.7654 31.85 33.7166 32.195 33.6176C32.5401 33.5185 32.8782 33.3692 33.2094 33.1696C33.4149 33.0457 33.6124 32.8955 33.8018 32.719C33.9958 32.5243 34.1554 32.3113 34.2807 32.0801C34.3991 31.8375 34.4604 31.5904 34.4644 31.3388C34.4799 31.0804 34.4119 30.8256 34.2605 30.5744C34.0815 30.2775 33.8444 30.0779 33.5492 29.9756C33.254 29.8733 32.9247 29.8305 32.5611 29.8473C32.1907 29.8526 31.7986 29.8866 31.3848 29.9492C30.9711 30.0118 30.5516 30.0778 30.1265 30.1473C29.7058 30.1985 29.3 30.2096 28.9089 30.1807C28.5178 30.1518 28.1575 30.0576 27.8279 29.8982C27.4914 29.7274 27.2095 29.4536 26.9824 29.0768C26.7552 28.6999 26.639 28.3263 26.6336 27.9559C26.6214 27.574 26.6916 27.2126 26.8441 26.8716C27.0011 26.5122 27.2177 26.1871 27.4937 25.8961C27.7812 25.5983 28.0963 25.3461 28.4389 25.1396C28.6672 25.0019 28.9117 24.8779 29.1721 24.7676C29.4371 24.639 29.7284 24.5412 30.0461 24.4743C30.357 24.3959 30.6953 24.3632 31.0612 24.3761L31.1218 25.4839Z" fill="#48D1FB"/>
</g>
<g filter="url(#filter5_d_175_224)">
<path d="M40.6204 21.0536C40.4399 20.9674 40.2386 20.9126 40.0163 20.8892C39.794 20.8658 39.5678 20.8568 39.3377 20.8622C39.1076 20.8675 38.8814 20.8925 38.6592 20.9371C38.4239 20.9843 38.1807 21.0603 37.9298 21.165C37.6893 21.2541 37.4697 21.3797 37.271 21.542C37.0829 21.6885 36.9418 21.8664 36.8478 22.0756C36.7511 22.2718 36.7277 22.4941 36.7776 22.7425C36.8379 23.0432 36.9871 23.2784 37.2251 23.4482C37.4606 23.605 37.7522 23.7369 38.1 23.8439C38.4453 23.9378 38.8232 24.0252 39.2338 24.106C39.6417 24.1737 40.0523 24.2545 40.4655 24.3484C40.8918 24.4397 41.2854 24.5715 41.6464 24.7439C42.0073 24.9162 42.3199 25.1527 42.5842 25.4532C42.8485 25.7538 43.0292 26.1459 43.1262 26.6296C43.2233 27.1133 43.2104 27.5579 43.0878 27.9632C42.9625 28.3555 42.7614 28.7087 42.4844 29.0226C42.2048 29.3235 41.8741 29.5734 41.4925 29.7724C41.1108 29.9713 40.7108 30.1128 40.2925 30.1967C39.5866 30.3383 38.8766 30.3244 38.1627 30.1548C37.4487 29.9853 36.8118 29.6915 36.252 29.2735L36.8398 28.3396C37.1798 28.5434 37.5133 28.7144 37.8403 28.8528C38.1776 28.9755 38.5255 29.0485 38.8837 29.0719C39.242 29.0952 39.6107 29.0688 39.9898 28.9927C40.2251 28.9455 40.4617 28.8709 40.6996 28.7687C40.9479 28.6509 41.1701 28.5044 41.3661 28.329C41.5595 28.1407 41.7006 27.9288 41.7893 27.6934C41.8912 27.4554 41.9132 27.1925 41.8555 26.9049C41.7874 26.5651 41.6316 26.2971 41.3883 26.1012C41.145 25.9052 40.8494 25.7537 40.5016 25.6467C40.1511 25.5266 39.7706 25.4262 39.36 25.3454C38.9494 25.2645 38.5323 25.185 38.1086 25.1068C37.6954 25.013 37.3097 24.8864 36.9513 24.7271C36.593 24.5678 36.2856 24.3575 36.0292 24.0961C35.7702 23.8217 35.5974 23.4688 35.5108 23.0374C35.4243 22.606 35.441 22.2151 35.5611 21.8646C35.6786 21.5011 35.8666 21.1846 36.1254 20.9151C36.3945 20.6299 36.7082 20.397 37.0663 20.2163C37.4375 20.0331 37.8192 19.9021 38.2114 19.8234C38.4728 19.771 38.7448 19.7368 39.0272 19.7209C39.32 19.6894 39.6273 19.6957 39.9489 19.74C40.2679 19.7712 40.5975 19.8547 40.9375 19.9904L40.6204 21.0536Z" fill="#48D1FB"/>
</g>
<g filter="url(#filter6_d_175_224)">
<path d="M50.5113 19.3646C50.5113 19.3646 50.4245 19.36 50.2509 19.3507C50.0903 19.3278 49.8835 19.3259 49.6306 19.3452C49.3643 19.3648 49.0785 19.4048 48.7732 19.4653C48.4811 19.5255 48.1896 19.6056 47.8985 19.7058C47.6205 19.7923 47.3496 19.8987 47.0858 20.0249C46.835 20.1375 46.6177 20.2559 46.4339 20.3803L46.6234 28.478L45.2637 28.5099L45.0294 18.4926L46.389 18.4608L46.403 19.0606C46.8643 18.8231 47.3398 18.6253 47.8295 18.4671C48.3326 18.3086 48.917 18.2016 49.5825 18.146C49.8355 18.1267 50.0557 18.1349 50.2433 18.1706C50.4438 18.1925 50.5711 18.2162 50.625 18.2416L50.5113 19.3646Z" fill="#48D1FB"/>
</g>
<g filter="url(#filter7_d_175_224)">
<path d="M58.8055 22.8344C58.9293 22.3845 58.9594 21.9986 58.8958 21.6769C58.8358 21.3423 58.6967 21.0689 58.4785 20.8568C58.2638 20.6318 57.9918 20.4393 57.6624 20.2795C57.3459 20.1233 56.9947 19.9921 56.6091 19.886L56.9462 18.9623C57.7176 19.1746 58.3409 19.4222 58.8162 19.7051C59.2915 19.988 59.6328 20.3309 59.84 20.7336C60.0601 21.1399 60.1601 21.6307 60.1401 22.206C60.1329 22.7849 60.0214 23.4664 59.8056 24.2505L58.256 29.8812C58.2174 29.8706 58.1128 29.8487 57.9422 29.8156C57.7808 29.7988 57.5827 29.7651 57.3478 29.7142C57.1093 29.6763 56.8533 29.6266 56.5798 29.5651C56.3063 29.5037 56.0328 29.4422 55.7593 29.3808C55.4986 29.3229 55.2655 29.2657 55.0598 29.209C54.4521 29.0556 53.897 28.8614 53.3947 28.6264C52.9053 28.3949 52.5013 28.1039 52.1829 27.7535C51.868 27.3903 51.6632 26.9536 51.5684 26.4435C51.4773 25.9206 51.5254 25.3185 51.7129 24.6371L52.1693 22.9788C52.3144 22.4517 52.5153 22.023 52.7722 21.6926C53.029 21.3623 53.3225 21.125 53.6526 20.9807C53.9991 20.8272 54.3601 20.7467 54.7355 20.7394C55.1144 20.7192 55.4903 20.7604 55.8631 20.863C56.2616 20.9727 56.6395 21.132 56.9969 21.341C57.3707 21.5407 57.7081 21.7718 58.0092 22.0345C58.3267 22.2878 58.5921 22.5544 58.8055 22.8344ZM58.5189 23.8757C58.2785 23.6436 57.9978 23.4073 57.6768 23.1669C57.3686 22.9299 57.0341 22.7134 56.6732 22.5173C56.3287 22.3118 55.9636 22.1561 55.5779 22.0499C55.4237 22.0075 55.2431 21.9854 55.0361 21.9838C54.8291 21.9821 54.6179 22.0208 54.4026 22.0998C54.2036 22.1695 54.0127 22.3106 53.8298 22.523C53.6632 22.7261 53.5269 23.0205 53.4208 23.4062L53.0387 24.7945C52.9219 25.2188 52.8579 25.6022 52.8466 25.9448C52.8517 26.2781 52.9334 26.5841 53.0918 26.8628C53.2537 27.1286 53.5152 27.3596 53.8761 27.5557C54.2498 27.7554 54.7423 27.9255 55.3536 28.066C55.5721 28.1262 55.7732 28.1746 55.9567 28.2113C56.1531 28.2515 56.3301 28.2864 56.4879 28.316C56.6621 28.3363 56.8007 28.3606 56.9035 28.3889C57.0227 28.4078 57.1081 28.4244 57.1595 28.4386C57.2273 28.4434 57.2612 28.4458 57.2612 28.4458L58.5189 23.8757Z" fill="#48D1FB"/>
</g>
<g filter="url(#filter8_d_175_224)">
<path d="M69.4931 26.2719L65.6845 33.8225L72.9152 29.2465L73.9762 30.1688L65.1483 35.5863L63.9079 34.5081L67.3984 27.6255L61.0537 32.0271L59.7985 30.936L63.9789 21.4788L65.0399 22.401L61.5451 30.2244L68.5068 25.4146L69.4931 26.2719Z" fill="#48D1FB"/>
</g>
<defs>
<filter id="filter0_i_175_224" x="27.2043" y="29.6127" width="42.1298" height="46.1298" filterUnits="userSpaceOnUse" color-interpolation-filters="sRGB">
<feFlood flood-opacity="0" result="BackgroundImageFix"/>
<feBlend mode="normal" in="SourceGraphic" in2="BackgroundImageFix" result="shape"/>
<feColorMatrix in="SourceAlpha" type="matrix" values="0 0 0 0 0 0 0 0 0 0 0 0 0 0 0 0 0 0 127 0" result="hardAlpha"/>
<feOffset dy="4"/>
<feGaussianBlur stdDeviation="2"/>
<feComposite in2="hardAlpha" operator="arithmetic" k2="-1" k3="1"/>
<feColorMatrix type="matrix" values="0 0 0 0 0 0 0 0 0 0 0 0 0 0 0 0 0 0 0.25 0"/>
<feBlend mode="normal" in2="shape" result="effect1_innerShadow_175_224"/>
</filter>
<filter id="filter1_b_175_224" x="21.3668" y="23.3288" width="54.0683" height="54.3423" filterUnits="userSpaceOnUse" color-interpolation-filters="sRGB">
<feFlood flood-opacity="0" result="BackgroundImageFix"/>
<feGaussianBlur in="BackgroundImageFix" stdDeviation="2.88019"/>
<feComposite in2="SourceAlpha" operator="in" result="effect1_backgroundBlur_175_224"/>
<feBlend mode="normal" in="SourceGraphic" in2="effect1_backgroundBlur_175_224" result="shape"/>
</filter>
<filter id="filter2_d_175_224" x="12.0037" y="37.5164" width="19.0101" height="16.5625" filterUnits="userSpaceOnUse" color-interpolation-filters="sRGB">
<feFlood flood-opacity="0" result="BackgroundImageFix"/>
<feColorMatrix in="SourceAlpha" type="matrix" values="0 0 0 0 0 0 0 0 0 0 0 0 0 0 0 0 0 0 127 0" result="hardAlpha"/>
<feOffset/>
<feGaussianBlur stdDeviation="1.75"/>
<feColorMatrix type="matrix" values="0 0 0 0 1 0 0 0 0 1 0 0 0 0 1 0 0 0 1 0"/>
<feBlend mode="normal" in2="BackgroundImageFix" result="effect1_dropShadow_175_224"/>
<feBlend mode="normal" in="SourceGraphic" in2="effect1_dropShadow_175_224" result="shape"/>
</filter>
<filter id="filter3_d_175_224" x="15.2841" y="27.6719" width="19.598" height="18.8828" filterUnits="userSpaceOnUse" color-interpolation-filters="sRGB">
<feFlood flood-opacity="0" result="BackgroundImageFix"/>
<feColorMatrix in="SourceAlpha" type="matrix" values="0 0 0 0 0 0 0 0 0 0 0 0 0 0 0 0 0 0 127 0" result="hardAlpha"/>
<feOffset/>
<feGaussianBlur stdDeviation="1.75"/>
<feColorMatrix type="matrix" values="0 0 0 0 1 0 0 0 0 1 0 0 0 0 1 0 0 0 1 0"/>
<feBlend mode="normal" in2="BackgroundImageFix" result="effect1_dropShadow_175_224"/>
<feBlend mode="normal" in="SourceGraphic" in2="effect1_dropShadow_175_224" result="shape"/>
</filter>
<filter id="filter4_d_175_224" x="21.7015" y="19.843" width="18.6798" height="19.8091" filterUnits="userSpaceOnUse" color-interpolation-filters="sRGB">
<feFlood flood-opacity="0" result="BackgroundImageFix"/>
<feColorMatrix in="SourceAlpha" type="matrix" values="0 0 0 0 0 0 0 0 0 0 0 0 0 0 0 0 0 0 127 0" result="hardAlpha"/>
<feOffset/>
<feGaussianBlur stdDeviation="1.75"/>
<feColorMatrix type="matrix" values="0 0 0 0 1 0 0 0 0 1 0 0 0 0 1 0 0 0 1 0"/>
<feBlend mode="normal" in2="BackgroundImageFix" result="effect1_dropShadow_175_224"/>
<feBlend mode="normal" in="SourceGraphic" in2="effect1_dropShadow_175_224" result="shape"/>
</filter>
<filter id="filter5_d_175_224" x="31.0052" y="15.6389" width="16.1992" height="18.8014" filterUnits="userSpaceOnUse" color-interpolation-filters="sRGB">
<feFlood flood-opacity="0" result="BackgroundImageFix"/>
<feColorMatrix in="SourceAlpha" type="matrix" values="0 0 0 0 0 0 0 0 0 0 0 0 0 0 0 0 0 0 127 0" result="hardAlpha"/>
<feOffset/>
<feGaussianBlur stdDeviation="1.75"/>
<feColorMatrix type="matrix" values="0 0 0 0 1 0 0 0 0 1 0 0 0 0 1 0 0 0 1 0"/>
<feBlend mode="normal" in2="BackgroundImageFix" result="effect1_dropShadow_175_224"/>
<feBlend mode="normal" in="SourceGraphic" in2="effect1_dropShadow_175_224" result="shape"/>
</filter>
<filter id="filter6_d_175_224" x="41.5233" y="14.6017" width="12.8389" height="17.4081" filterUnits="userSpaceOnUse" color-interpolation-filters="sRGB">
<feFlood flood-opacity="0" result="BackgroundImageFix"/>
<feColorMatrix in="SourceAlpha" type="matrix" values="0 0 0 0 0 0 0 0 0 0 0 0 0 0 0 0 0 0 127 0" result="hardAlpha"/>
<feOffset/>
<feGaussianBlur stdDeviation="1.75"/>
<feColorMatrix type="matrix" values="0 0 0 0 1 0 0 0 0 1 0 0 0 0 1 0 0 0 1 0"/>
<feBlend mode="normal" in2="BackgroundImageFix" result="effect1_dropShadow_175_224"/>
<feBlend mode="normal" in="SourceGraphic" in2="effect1_dropShadow_175_224" result="shape"/>
</filter>
<filter id="filter7_d_175_224" x="47.2737" y="14.523" width="17.1835" height="19.0703" filterUnits="userSpaceOnUse" color-interpolation-filters="sRGB">
<feFlood flood-opacity="0" result="BackgroundImageFix"/>
<feColorMatrix in="SourceAlpha" type="matrix" values="0 0 0 0 0 0 0 0 0 0 0 0 0 0 0 0 0 0 127 0" result="hardAlpha"/>
<feOffset/>
<feGaussianBlur stdDeviation="1.75"/>
<feColorMatrix type="matrix" values="0 0 0 0 1 0 0 0 0 1 0 0 0 0 1 0 0 0 1 0"/>
<feBlend mode="normal" in2="BackgroundImageFix" result="effect1_dropShadow_175_224"/>
<feBlend mode="normal" in="SourceGraphic" in2="effect1_dropShadow_175_224" result="shape"/>
</filter>
<filter id="filter8_d_175_224" x="53.9972" y="17.9788" width="23.479" height="23.1469" filterUnits="userSpaceOnUse" color-interpolation-filters="sRGB">
<feFlood flood-opacity="0" result="BackgroundImageFix"/>
<feColorMatrix in="SourceAlpha" type="matrix" values="0 0 0 0 0 0 0 0 0 0 0 0 0 0 0 0 0 0 127 0" result="hardAlpha"/>
<feOffset/>
<feGaussianBlur stdDeviation="1.75"/>
<feColorMatrix type="matrix" values="0 0 0 0 1 0 0 0 0 1 0 0 0 0 1 0 0 0 1 0"/>
<feBlend mode="normal" in2="BackgroundImageFix" result="effect1_dropShadow_175_224"/>
<feBlend mode="normal" in="SourceGraphic" in2="effect1_dropShadow_175_224" result="shape"/>
</filter>
</defs>
</svg>
