<svg width="87" height="87" viewBox="0 0 87 87" fill="none" xmlns="http://www.w3.org/2000/svg">
<path d="M16.7989 26.4774C26.0767 11.8543 45.4522 7.52113 60.0753 16.7989C74.6983 26.0767 79.0315 45.4522 69.7537 60.0753C60.4759 74.6983 41.1004 79.0315 26.4774 69.7537C11.8543 60.4759 7.52112 41.1005 16.7989 26.4774Z" fill="#DE30F4"/>
<g filter="url(#filter0_i_176_104)">
<circle cx="45.3014" cy="49.3064" r="21.0622" transform="rotate(-147.606 45.3014 49.3064)" fill="#02BFE0"/>
</g>
<g filter="url(#filter1_b_176_104)">
<ellipse cx="45.4332" cy="49.1288" rx="21.1786" ry="21.4995" transform="rotate(-147.606 45.4332 49.1288)" fill="#48D1FB" fill-opacity="0.1"/>
</g>
<g style="mix-blend-mode:hard-light" filter="url(#filter2_f_176_104)">
<ellipse cx="45.2811" cy="49.4" rx="25.4143" ry="25.7994" transform="rotate(-147.606 45.2811 49.4)" fill="#FF3780" fill-opacity="0.251"/>
</g>
<g style="mix-blend-mode:hard-light" filter="url(#filter3_f_176_104)">
<path d="M27.8862 38.3635C34.0808 28.5999 46.8894 25.6431 56.4895 31.734C66.0895 37.8249 68.8706 50.6728 62.676 60.4364C56.4814 70.2 43.6727 73.1568 34.0727 67.0659C24.4726 60.975 21.6915 48.1271 27.8862 38.3635Z" stroke="#F32E7C" stroke-width="1.15587"/>
</g>
<g style="mix-blend-mode:hard-light" filter="url(#filter4_f_176_104)">
<path d="M28.0363 38.4588C34.1797 28.776 46.8792 25.8472 56.3942 31.8842C65.9092 37.9211 68.6692 50.6584 62.5259 60.3411C56.3825 70.0239 43.683 72.9527 34.168 66.9157C24.6529 60.8788 21.8929 48.1416 28.0363 38.4588Z" stroke="#FF26C2" stroke-width="1.51152"/>
</g>
<g style="mix-blend-mode:hard-light" filter="url(#filter5_ddi_176_104)">
<path d="M27.8862 38.3635C34.0808 28.5999 46.8894 25.6431 56.4895 31.734C66.0895 37.8249 68.8706 50.6728 62.676 60.4364C56.4814 70.2 43.6727 73.1568 34.0727 67.0659C24.4726 60.975 21.6915 48.1271 27.8862 38.3635Z" stroke="#FB37FF" stroke-opacity="0.2" stroke-width="1.15587"/>
</g>
<g filter="url(#filter6_f_176_104)">
<path d="M27.6985 38.2444C33.9572 28.3799 46.9022 25.388 56.6086 31.5463C66.3149 37.7047 69.1224 50.6909 62.8637 60.5555C56.605 70.4201 43.66 73.4119 33.9536 67.2536C24.2472 61.0953 21.4398 48.109 27.6985 38.2444Z" stroke="#FB37FF" stroke-width="0.711302"/>
</g>
<g filter="url(#filter7_d_176_104)">
<path d="M15.7012 41.3944C15.4954 41.6799 15.3145 42.0112 15.1586 42.3881C14.9922 42.7494 14.8663 43.1119 14.781 43.4756C14.657 44.0355 14.67 44.5206 14.8201 44.9307C14.9703 45.3409 15.2313 45.671 15.6033 45.921C15.9622 46.1685 16.4085 46.3516 16.9423 46.4705L19.5088 46.9972C19.9667 47.0875 20.3747 47.1204 20.7329 47.096C21.0806 47.0558 21.3797 46.9517 21.6303 46.7837C21.8834 46.6026 22.0933 46.3654 22.2599 46.0721C22.4291 45.7657 22.5575 45.3902 22.6452 44.9454C22.6994 44.6707 22.7458 44.4012 22.7843 44.137C22.8098 43.8702 22.8248 43.6218 22.8294 43.3917C22.834 43.1615 22.8349 42.985 22.8319 42.8622C22.8316 42.7262 22.8301 42.6647 22.8275 42.6778L24.0159 42.6472C24.0406 43.0734 24.0352 43.514 23.9998 43.9691C23.9775 44.4268 23.9172 44.8701 23.8189 45.2992C23.6588 46.0423 23.3989 46.6706 23.0394 47.184C22.6669 47.6949 22.188 48.0557 21.6028 48.2664C21.0045 48.4746 20.2868 48.4961 19.4496 48.331L16.6044 47.7697C15.8588 47.6226 15.2318 47.3562 14.7235 46.9706C14.2152 46.5849 13.857 46.093 13.6488 45.4947C13.4302 44.8808 13.4074 44.1696 13.5805 43.3611C13.6682 42.9164 13.8148 42.4832 14.0203 42.0617C14.2283 41.627 14.4639 41.225 14.727 40.8556L15.7012 41.3944Z" fill="white"/>
</g>
<g filter="url(#filter8_d_176_104)">
<path d="M26.5453 36.5915C26.6316 36.8722 26.6608 37.179 26.6328 37.512C26.6121 37.8338 26.5433 38.1558 26.4265 38.4781C26.3096 38.8004 26.1631 39.095 25.9868 39.3621C25.7591 39.7071 25.5127 40.0078 25.2477 40.2642C24.9826 40.5206 24.7062 40.7215 24.4184 40.8671C24.1195 41.0053 23.8037 41.0844 23.471 41.1045C23.1382 41.1245 22.7922 41.0799 22.433 40.9706C22.0738 40.8613 21.6995 40.6782 21.31 40.4211L15.5678 36.6313L16.317 35.4963L21.8588 39.1538C22.3262 39.4623 22.7467 39.636 23.1204 39.675C23.4941 39.7139 23.8358 39.6439 24.1456 39.465C24.4443 39.2787 24.7222 38.9908 24.9792 38.6013C25.1775 38.3008 25.3111 37.9896 25.3798 37.6675C25.4375 37.3381 25.4397 37.0201 25.3865 36.7134C25.3295 36.3882 25.2173 36.0985 25.0497 35.8441C24.8894 35.5786 24.6646 35.3503 24.3753 35.1594L18.9169 31.5569L19.644 30.4552L28.0069 35.9746L27.2797 37.0763L26.5453 36.5915Z" fill="white"/>
</g>
<g filter="url(#filter9_d_176_104)">
<path d="M27.7425 24.3291C27.5428 24.341 27.3401 24.3904 27.1342 24.4774C26.9283 24.5644 26.726 24.6659 26.5272 24.7819C26.3283 24.8979 26.1425 25.0291 25.9695 25.1756C25.7864 25.3307 25.6103 25.5148 25.4413 25.7279C25.2738 25.9221 25.1424 26.1383 25.047 26.3764C24.9532 26.5956 24.9157 26.8196 24.9346 27.0482C24.9449 27.2666 25.0319 27.4725 25.1956 27.6658C25.3938 27.8998 25.6382 28.0336 25.9287 28.0671C26.2106 28.0905 26.5296 28.0648 26.8858 27.9903C27.2334 27.9055 27.6064 27.7993 28.0049 27.6714C28.3947 27.5334 28.7932 27.4056 29.2003 27.288C29.6175 27.1617 30.0258 27.0867 30.4251 27.063C30.8244 27.0393 31.2124 27.0951 31.5891 27.2304C31.9657 27.3656 32.3135 27.6215 32.6324 27.9979C32.9512 28.3743 33.155 28.7696 33.2437 29.1838C33.3238 29.5877 33.3185 29.9941 33.2279 30.4029C33.1286 30.8014 32.9601 31.1801 32.7223 31.5388C32.4844 31.8975 32.2027 32.2148 31.8772 32.4905C31.3278 32.9559 30.6996 33.287 29.9927 33.4839C29.2858 33.6808 28.5862 33.7316 27.894 33.6365L27.9569 32.5348C28.3531 32.5487 28.7277 32.5372 29.0808 32.5002C29.4355 32.4444 29.7752 32.3401 30.1001 32.1873C30.4249 32.0344 30.7349 31.833 31.0299 31.5831C31.2131 31.428 31.384 31.2482 31.5429 31.0438C31.7033 30.8206 31.8269 30.5848 31.9136 30.3366C31.9918 30.0782 32.0128 29.8245 31.9767 29.5755C31.9507 29.3179 31.8429 29.0772 31.6533 28.8534C31.4293 28.5889 31.1634 28.4297 30.8556 28.3758C30.5479 28.3219 30.2159 28.3323 29.8597 28.4069C29.4949 28.4712 29.1133 28.5674 28.7148 28.6952C28.3163 28.823 27.9128 28.9551 27.5041 29.0916C27.0971 29.2092 26.6982 29.285 26.3075 29.3189C25.9168 29.3527 25.5461 29.3173 25.1953 29.2126C24.8358 29.0977 24.5139 28.8723 24.2295 28.5366C23.9451 28.2008 23.7707 27.8505 23.7064 27.4857C23.6334 27.1107 23.6449 26.7427 23.741 26.3817C23.8387 26.0019 24.0006 25.6464 24.2267 25.3151C24.463 24.9752 24.7337 24.6759 25.039 24.4174C25.2424 24.245 25.4639 24.0836 25.7034 23.9332C25.9445 23.7639 26.2165 23.6209 26.5195 23.5041C26.8138 23.3771 27.1426 23.2908 27.5059 23.2452L27.7425 24.3291Z" fill="white"/>
</g>
<g filter="url(#filter10_d_176_104)">
<path d="M37.0811 19.5016C36.8911 19.4391 36.6843 19.4104 36.4609 19.4155C36.2374 19.4207 36.0119 19.4406 35.7844 19.4752C35.5569 19.5099 35.3357 19.5635 35.121 19.636C34.8936 19.7129 34.6621 19.8192 34.4266 19.9551C34.1994 20.0741 33.9976 20.2267 33.8213 20.4129C33.6533 20.5823 33.536 20.7767 33.4695 20.9962C33.3986 21.2031 33.4038 21.4266 33.4848 21.6666C33.583 21.9571 33.761 22.1714 34.0187 22.3095C34.2722 22.435 34.5783 22.5286 34.9369 22.5904C35.2913 22.6395 35.6773 22.678 36.0948 22.7058C36.5081 22.721 36.9256 22.7488 37.3474 22.7893C37.7819 22.8254 38.1891 22.906 38.5691 23.031C38.949 23.1559 39.2893 23.3506 39.5897 23.615C39.8901 23.8794 40.1193 24.2453 40.2772 24.7127C40.4351 25.18 40.4791 25.6226 40.4091 26.0403C40.3349 26.4454 40.1804 26.8213 39.9457 27.168C39.7067 27.502 39.4106 27.7921 39.0575 28.0381C38.7043 28.284 38.3256 28.4753 37.9214 28.6119C37.2393 28.8424 36.5333 28.919 35.8036 28.8419C35.0738 28.7647 34.4047 28.5545 33.7961 28.2113L34.26 27.2101C34.6233 27.3688 34.9759 27.496 35.3178 27.5916C35.6681 27.6703 36.0224 27.6983 36.3807 27.6758C36.739 27.6533 37.1013 27.5801 37.4676 27.4563C37.695 27.3795 37.9202 27.2753 38.1431 27.1437C38.3744 26.9952 38.5761 26.8215 38.7481 26.6226C38.9159 26.4111 39.0288 26.183 39.0869 25.9382C39.1575 25.6891 39.1459 25.4256 39.052 25.1477C38.9411 24.8193 38.7524 24.5734 38.4861 24.4101C38.2198 24.2467 37.9074 24.1341 37.5487 24.0723C37.1858 23.9979 36.7956 23.9468 36.378 23.919C35.9605 23.8912 35.5366 23.8655 35.1065 23.842C34.6847 23.8015 34.2859 23.7251 33.9102 23.6128C33.5345 23.5005 33.2028 23.3311 32.9152 23.1046C32.6233 22.8654 32.4069 22.5374 32.266 22.1206C32.1252 21.7037 32.092 21.3138 32.1664 20.9509C32.2366 20.5754 32.3828 20.2375 32.605 19.9372C32.8356 19.62 33.117 19.349 33.4492 19.1242C33.794 18.8951 34.1559 18.7166 34.5348 18.5885C34.7875 18.5032 35.0528 18.4346 35.3309 18.3829C35.6173 18.3143 35.9229 18.2814 36.2476 18.2843C36.568 18.2746 36.9055 18.3154 37.26 18.4067L37.0811 19.5016Z" fill="white"/>
</g>
<g filter="url(#filter11_d_176_104)">
<path d="M47.8161 17.8412C47.8161 17.8412 47.7293 17.8366 47.5557 17.8273C47.3951 17.8044 47.1884 17.8026 46.9354 17.8218C46.6691 17.8414 46.3833 17.8814 46.078 17.9419C45.786 18.0021 45.4944 18.0823 45.2034 18.1824C44.9253 18.269 44.6544 18.3753 44.3906 18.5015C44.1398 18.6141 43.9226 18.7325 43.7387 18.8569L43.9282 26.9546L42.5685 26.9864L42.3342 16.9692L43.6938 16.9374L43.7079 17.5372C44.1691 17.2997 44.6446 17.1019 45.1344 16.9437C45.6375 16.7852 46.2218 16.6782 46.8874 16.6226C47.1403 16.6034 47.3606 16.6116 47.5481 16.6472C47.7487 16.6692 47.8759 16.6929 47.9299 16.7183L47.8161 17.8412Z" fill="white"/>
</g>
<g filter="url(#filter12_d_176_104)">
<path d="M54.772 20.9514C54.8773 20.4968 54.8915 20.11 54.8148 19.7912C54.7411 19.4593 54.591 19.1919 54.3643 18.9888C54.1406 18.7728 53.8609 18.5917 53.5252 18.4455C53.2025 18.3023 52.8463 18.1856 52.4566 18.0954L52.7557 17.1587C53.5351 17.3392 54.168 17.5611 54.6545 17.8243C55.141 18.0875 55.496 18.4161 55.7195 18.81C55.9561 19.2069 56.0761 19.6932 56.0797 20.2689C56.0962 20.8475 56.0127 21.533 55.8292 22.3254L54.5116 28.0148C54.4726 28.0058 54.3672 27.9882 54.1953 27.9621C54.0334 27.952 53.8341 27.9263 53.5973 27.8852C53.3574 27.857 53.0996 27.8178 52.8238 27.7676C52.548 27.7175 52.2723 27.6673 51.9965 27.6171C51.7337 27.5699 51.4984 27.5223 51.2905 27.4741C50.677 27.3457 50.1145 27.1744 49.603 26.9601C49.1045 26.7489 48.6889 26.4747 48.3564 26.1377C48.0269 25.7876 47.8044 25.3597 47.6888 24.8539C47.5763 24.3352 47.5998 23.7316 47.7592 23.0431L48.1473 21.3675C48.2706 20.8349 48.4538 20.3983 48.697 20.0577C48.9401 19.7171 49.2236 19.468 49.5475 19.3104C49.8874 19.1427 50.2448 19.0476 50.6196 19.0249C50.9974 18.9892 51.3746 19.015 51.7513 19.1022C52.154 19.1955 52.5381 19.3392 52.9037 19.5333C53.2854 19.7175 53.632 19.9347 53.9436 20.1848C54.2712 20.4249 54.5473 20.6804 54.772 20.9514ZM54.5283 22.0036C54.2786 21.7815 53.9885 21.5569 53.6579 21.3298C53.3402 21.1057 52.9971 20.9031 52.6285 20.7219C52.2758 20.5307 51.9047 20.39 51.515 20.2998C51.3591 20.2637 51.1778 20.249 50.9709 20.2559C50.764 20.2627 50.5546 20.31 50.3427 20.3978C50.1467 20.4756 49.9617 20.6244 49.7877 20.8441C49.6296 21.0538 49.5054 21.3535 49.4152 21.7432L49.0903 23.1461C48.991 23.5748 48.9427 23.9605 48.9455 24.3033C48.9642 24.6361 49.0584 24.9385 49.2281 25.2104C49.4008 25.4694 49.6714 25.6895 50.0401 25.8706C50.4217 26.0548 50.9207 26.2046 51.5373 26.32C51.7581 26.3712 51.9609 26.4113 52.1458 26.4404C52.3436 26.4726 52.522 26.5002 52.6809 26.5233C52.8558 26.5364 52.9952 26.555 53.0991 26.5791C53.219 26.5932 53.3049 26.6062 53.3569 26.6183C53.4249 26.6203 53.4588 26.6214 53.4588 26.6214L54.5283 22.0036Z" fill="white"/>
</g>
<g filter="url(#filter13_d_176_104)">
<path d="M65.8785 24.9524L61.8998 32.4147L69.2323 28.0038L70.2721 28.9499L61.3237 34.1659L60.1081 33.0599L63.7536 26.2581L57.3108 30.5149L56.0806 29.3956L60.4743 20.0355L61.5142 20.9816L57.843 28.7237L64.9119 24.0729L65.8785 24.9524Z" fill="white"/>
</g>
<defs>
<filter id="filter0_i_176_104" x="24.2365" y="28.2415" width="42.1298" height="46.1298" filterUnits="userSpaceOnUse" color-interpolation-filters="sRGB">
<feFlood flood-opacity="0" result="BackgroundImageFix"/>
<feBlend mode="normal" in="SourceGraphic" in2="BackgroundImageFix" result="shape"/>
<feColorMatrix in="SourceAlpha" type="matrix" values="0 0 0 0 0 0 0 0 0 0 0 0 0 0 0 0 0 0 127 0" result="hardAlpha"/>
<feOffset dy="4"/>
<feGaussianBlur stdDeviation="2"/>
<feComposite in2="hardAlpha" operator="arithmetic" k2="-1" k3="1"/>
<feColorMatrix type="matrix" values="0 0 0 0 0 0 0 0 0 0 0 0 0 0 0 0 0 0 0.25 0"/>
<feBlend mode="normal" in2="shape" result="effect1_innerShadow_176_104"/>
</filter>
<filter id="filter1_b_176_104" x="18.399" y="21.9576" width="54.0683" height="54.3423" filterUnits="userSpaceOnUse" color-interpolation-filters="sRGB">
<feFlood flood-opacity="0" result="BackgroundImageFix"/>
<feGaussianBlur in="BackgroundImageFix" stdDeviation="2.88019"/>
<feComposite in2="SourceAlpha" operator="in" result="effect1_backgroundBlur_176_104"/>
<feBlend mode="normal" in="SourceGraphic" in2="effect1_backgroundBlur_176_104" result="shape"/>
</filter>
<filter id="filter2_f_176_104" x="13.0574" y="17.0119" width="64.4473" height="64.7761" filterUnits="userSpaceOnUse" color-interpolation-filters="sRGB">
<feFlood flood-opacity="0" result="BackgroundImageFix"/>
<feBlend mode="normal" in="SourceGraphic" in2="BackgroundImageFix" result="shape"/>
<feGaussianBlur stdDeviation="3.34756" result="effect1_foregroundBlur_176_104"/>
</filter>
<filter id="filter3_f_176_104" x="17.3122" y="21.2941" width="55.9378" height="56.2118" filterUnits="userSpaceOnUse" color-interpolation-filters="sRGB">
<feFlood flood-opacity="0" result="BackgroundImageFix"/>
<feBlend mode="normal" in="SourceGraphic" in2="BackgroundImageFix" result="shape"/>
<feGaussianBlur stdDeviation="3.34756" result="effect1_foregroundBlur_176_104"/>
</filter>
<filter id="filter4_f_176_104" x="21.7756" y="25.7575" width="47.011" height="47.285" filterUnits="userSpaceOnUse" color-interpolation-filters="sRGB">
<feFlood flood-opacity="0" result="BackgroundImageFix"/>
<feBlend mode="normal" in="SourceGraphic" in2="BackgroundImageFix" result="shape"/>
<feGaussianBlur stdDeviation="1.11585" result="effect1_foregroundBlur_176_104"/>
</filter>
<filter id="filter5_ddi_176_104" x="21.1061" y="27.3197" width="48.35" height="48.624" filterUnits="userSpaceOnUse" color-interpolation-filters="sRGB">
<feFlood flood-opacity="0" result="BackgroundImageFix"/>
<feColorMatrix in="SourceAlpha" type="matrix" values="0 0 0 0 0 0 0 0 0 0 0 0 0 0 0 0 0 0 127 0" result="hardAlpha"/>
<feOffset dy="1.15587"/>
<feGaussianBlur stdDeviation="0.444564"/>
<feColorMatrix type="matrix" values="0 0 0 0 0.3 0 0 0 0 0 0 0 0 0 0.26 0 0 0 0.7 0"/>
<feBlend mode="multiply" in2="BackgroundImageFix" result="effect1_dropShadow_176_104"/>
<feColorMatrix in="SourceAlpha" type="matrix" values="0 0 0 0 0 0 0 0 0 0 0 0 0 0 0 0 0 0 127 0" result="hardAlpha"/>
<feOffset dy="2.23171"/>
<feGaussianBlur stdDeviation="1.45061"/>
<feColorMatrix type="matrix" values="0 0 0 0 0.6 0 0 0 0 0 0 0 0 0 0.6 0 0 0 1 0"/>
<feBlend mode="color-dodge" in2="effect1_dropShadow_176_104" result="effect2_dropShadow_176_104"/>
<feBlend mode="normal" in="SourceGraphic" in2="effect2_dropShadow_176_104" result="shape"/>
<feColorMatrix in="SourceAlpha" type="matrix" values="0 0 0 0 0 0 0 0 0 0 0 0 0 0 0 0 0 0 127 0" result="hardAlpha"/>
<feOffset dx="-0.115587" dy="0.231173"/>
<feGaussianBlur stdDeviation="0.0577933"/>
<feComposite in2="hardAlpha" operator="arithmetic" k2="-1" k3="1"/>
<feColorMatrix type="matrix" values="0 0 0 0 1 0 0 0 0 1 0 0 0 0 1 0 0 0 0.5 0"/>
<feBlend mode="normal" in2="shape" result="effect3_innerShadow_176_104"/>
</filter>
<filter id="filter6_f_176_104" x="23.8295" y="27.8114" width="42.9032" height="43.1772" filterUnits="userSpaceOnUse" color-interpolation-filters="sRGB">
<feFlood flood-opacity="0" result="BackgroundImageFix"/>
<feBlend mode="normal" in="SourceGraphic" in2="BackgroundImageFix" result="shape"/>
<feGaussianBlur stdDeviation="0.0889127" result="effect1_foregroundBlur_176_104"/>
</filter>
<filter id="filter7_d_176_104" x="9.33704" y="37.1887" width="18.5125" height="15.3622" filterUnits="userSpaceOnUse" color-interpolation-filters="sRGB">
<feFlood flood-opacity="0" result="BackgroundImageFix"/>
<feColorMatrix in="SourceAlpha" type="matrix" values="0 0 0 0 0 0 0 0 0 0 0 0 0 0 0 0 0 0 127 0" result="hardAlpha"/>
<feOffset/>
<feGaussianBlur stdDeviation="1.75"/>
<feColorMatrix type="matrix" values="0 0 0 0 1 0 0 0 0 1 0 0 0 0 1 0 0 0 1 0"/>
<feBlend mode="normal" in2="BackgroundImageFix" result="effect1_dropShadow_176_104"/>
<feBlend mode="normal" in="SourceGraphic" in2="effect1_dropShadow_176_104" result="shape"/>
</filter>
<filter id="filter8_d_176_104" x="12.0678" y="26.9552" width="19.5893" height="18.7947" filterUnits="userSpaceOnUse" color-interpolation-filters="sRGB">
<feFlood flood-opacity="0" result="BackgroundImageFix"/>
<feColorMatrix in="SourceAlpha" type="matrix" values="0 0 0 0 0 0 0 0 0 0 0 0 0 0 0 0 0 0 127 0" result="hardAlpha"/>
<feOffset/>
<feGaussianBlur stdDeviation="1.75"/>
<feColorMatrix type="matrix" values="0 0 0 0 1 0 0 0 0 1 0 0 0 0 1 0 0 0 1 0"/>
<feBlend mode="normal" in2="BackgroundImageFix" result="effect1_dropShadow_176_104"/>
<feBlend mode="normal" in="SourceGraphic" in2="effect1_dropShadow_176_104" result="shape"/>
</filter>
<filter id="filter9_d_176_104" x="18.6546" y="18.6682" width="19.378" height="19.7655" filterUnits="userSpaceOnUse" color-interpolation-filters="sRGB">
<feFlood flood-opacity="0" result="BackgroundImageFix"/>
<feColorMatrix in="SourceAlpha" type="matrix" values="0 0 0 0 0 0 0 0 0 0 0 0 0 0 0 0 0 0 127 0" result="hardAlpha"/>
<feOffset/>
<feGaussianBlur stdDeviation="1.75"/>
<feColorMatrix type="matrix" values="0 0 0 0 1 0 0 0 0 1 0 0 0 0 1 0 0 0 1 0"/>
<feBlend mode="normal" in2="BackgroundImageFix" result="effect1_dropShadow_176_104"/>
<feBlend mode="normal" in="SourceGraphic" in2="effect1_dropShadow_176_104" result="shape"/>
</filter>
<filter id="filter10_d_176_104" x="27.4537" y="13.9746" width="17.2645" height="19.3472" filterUnits="userSpaceOnUse" color-interpolation-filters="sRGB">
<feFlood flood-opacity="0" result="BackgroundImageFix"/>
<feColorMatrix in="SourceAlpha" type="matrix" values="0 0 0 0 0 0 0 0 0 0 0 0 0 0 0 0 0 0 127 0" result="hardAlpha"/>
<feOffset/>
<feGaussianBlur stdDeviation="1.75"/>
<feColorMatrix type="matrix" values="0 0 0 0 1 0 0 0 0 1 0 0 0 0 1 0 0 0 1 0"/>
<feBlend mode="normal" in2="BackgroundImageFix" result="effect1_dropShadow_176_104"/>
<feBlend mode="normal" in="SourceGraphic" in2="effect1_dropShadow_176_104" result="shape"/>
</filter>
<filter id="filter11_d_176_104" x="38.8281" y="13.0783" width="12.8389" height="17.4081" filterUnits="userSpaceOnUse" color-interpolation-filters="sRGB">
<feFlood flood-opacity="0" result="BackgroundImageFix"/>
<feColorMatrix in="SourceAlpha" type="matrix" values="0 0 0 0 0 0 0 0 0 0 0 0 0 0 0 0 0 0 127 0" result="hardAlpha"/>
<feOffset/>
<feGaussianBlur stdDeviation="1.75"/>
<feColorMatrix type="matrix" values="0 0 0 0 1 0 0 0 0 1 0 0 0 0 1 0 0 0 1 0"/>
<feBlend mode="normal" in2="BackgroundImageFix" result="effect1_dropShadow_176_104"/>
<feBlend mode="normal" in="SourceGraphic" in2="effect1_dropShadow_176_104" result="shape"/>
</filter>
<filter id="filter12_d_176_104" x="43.4605" y="12.86" width="16.8479" height="18.8691" filterUnits="userSpaceOnUse" color-interpolation-filters="sRGB">
<feFlood flood-opacity="0" result="BackgroundImageFix"/>
<feColorMatrix in="SourceAlpha" type="matrix" values="0 0 0 0 0 0 0 0 0 0 0 0 0 0 0 0 0 0 127 0" result="hardAlpha"/>
<feOffset/>
<feGaussianBlur stdDeviation="1.75"/>
<feColorMatrix type="matrix" values="0 0 0 0 1 0 0 0 0 1 0 0 0 0 1 0 0 0 1 0"/>
<feBlend mode="normal" in2="BackgroundImageFix" result="effect1_dropShadow_176_104"/>
<feBlend mode="normal" in="SourceGraphic" in2="effect1_dropShadow_176_104" result="shape"/>
</filter>
<filter id="filter13_d_176_104" x="50.3253" y="16.5355" width="23.4468" height="23.2224" filterUnits="userSpaceOnUse" color-interpolation-filters="sRGB">
<feFlood flood-opacity="0" result="BackgroundImageFix"/>
<feColorMatrix in="SourceAlpha" type="matrix" values="0 0 0 0 0 0 0 0 0 0 0 0 0 0 0 0 0 0 127 0" result="hardAlpha"/>
<feOffset/>
<feGaussianBlur stdDeviation="1.75"/>
<feColorMatrix type="matrix" values="0 0 0 0 1 0 0 0 0 1 0 0 0 0 1 0 0 0 1 0"/>
<feBlend mode="normal" in2="BackgroundImageFix" result="effect1_dropShadow_176_104"/>
<feBlend mode="normal" in="SourceGraphic" in2="effect1_dropShadow_176_104" result="shape"/>
</filter>
</defs>
</svg>
