<svg width="165" height="98" viewBox="0 0 165 98" fill="none" xmlns="http://www.w3.org/2000/svg">
<circle cx="82" cy="49" r="49" fill="#FA8467"/>
<path d="M17.1482 38.104C16.4442 37.816 15.6602 37.592 14.7962 37.432C13.9642 37.272 13.1642 37.192 12.3962 37.192C11.1802 37.192 10.1402 37.368 9.27619 37.72C8.44419 38.072 7.78819 38.632 7.30819 39.4C6.86019 40.136 6.63619 41.112 6.63619 42.328V58.072C6.63619 59.288 6.84419 60.264 7.26019 61C7.67619 61.736 8.26819 62.28 9.03619 62.632C9.83619 62.952 10.8282 63.112 12.0122 63.112C12.8762 63.112 13.7402 63.032 14.6042 62.872C15.5002 62.712 16.3162 62.52 17.0522 62.296C17.8202 62.072 18.4122 61.912 18.8282 61.816L19.5482 65.896C18.1722 66.408 16.8282 66.808 15.5162 67.096C14.2042 67.384 12.9402 67.528 11.7242 67.528C9.74019 67.528 8.02819 67.192 6.58819 66.52C5.18019 65.816 4.09219 64.76 3.32419 63.352C2.55619 61.944 2.17219 60.216 2.17219 58.168V42.472C2.17219 40.328 2.58819 38.552 3.42019 37.144C4.25219 35.704 5.35619 34.632 6.73219 33.928C8.14019 33.224 9.72419 32.872 11.4842 32.872C12.6682 32.872 13.8362 33 14.9882 33.256C16.1402 33.512 17.2602 33.928 18.3482 34.504L17.1482 38.104ZM35.9548 65.416C35.6668 65.736 35.2348 66.056 34.6588 66.376C34.0828 66.664 33.4268 66.904 32.6908 67.096C31.9868 67.288 31.2828 67.384 30.5788 67.384C29.7468 67.384 28.9308 67.288 28.1308 67.096C27.3628 66.936 26.6268 66.68 25.9228 66.328C25.2508 65.944 24.6588 65.448 24.1468 64.84C23.6668 64.2 23.2828 63.448 22.9948 62.584C22.7388 61.688 22.6108 60.632 22.6108 59.416V42.952H27.1228V59.128C27.1228 60.12 27.2668 60.92 27.5548 61.528C27.8748 62.136 28.3228 62.584 28.8988 62.872C29.4748 63.128 30.1788 63.256 31.0108 63.256C31.6828 63.256 32.3228 63.144 32.9308 62.92C33.5388 62.664 34.0668 62.328 34.5148 61.912C34.9628 61.496 35.3148 61.016 35.5708 60.472C35.8268 59.896 35.9548 59.272 35.9548 58.6V42.952H40.3708V67H35.9548V65.416ZM58.3187 47.608C57.9347 47.384 57.5027 47.208 57.0227 47.08C56.5427 46.92 56.0467 46.792 55.5347 46.696C55.0227 46.6 54.4947 46.552 53.9507 46.552C53.5347 46.552 53.1027 46.6 52.6547 46.696C52.2067 46.76 51.7747 46.888 51.3587 47.08C50.9747 47.24 50.6547 47.464 50.3987 47.752C50.1427 48.04 50.0147 48.424 50.0147 48.904C50.0147 49.48 50.2227 49.976 50.6387 50.392C51.0867 50.808 51.6627 51.192 52.3667 51.544C53.0707 51.864 53.8547 52.184 54.7187 52.504C55.5827 52.824 56.4307 53.208 57.2627 53.656C58.1267 54.072 58.9107 54.568 59.6147 55.144C60.3187 55.72 60.8787 56.424 61.2947 57.256C61.7427 58.088 61.9667 59.096 61.9667 60.28C61.9667 61.528 61.7267 62.616 61.2467 63.544C60.7667 64.472 60.1267 65.256 59.3267 65.896C58.5267 66.504 57.6147 66.968 56.5907 67.288C55.5667 67.608 54.5107 67.768 53.4227 67.768C51.6947 67.768 50.0307 67.4 48.4307 66.664C46.8307 65.928 45.4707 64.936 44.3507 63.688L46.8947 60.952C47.5027 61.496 48.1267 61.976 48.7667 62.392C49.4067 62.776 50.0787 63.08 50.7827 63.304C51.5187 63.528 52.2707 63.64 53.0387 63.64C53.5187 63.64 54.0147 63.592 54.5267 63.496C55.0387 63.368 55.5027 63.176 55.9187 62.92C56.3667 62.632 56.7187 62.28 56.9747 61.864C57.2627 61.448 57.4067 60.952 57.4067 60.376C57.4067 59.64 57.1827 59.032 56.7347 58.552C56.3187 58.072 55.7587 57.64 55.0547 57.256C54.3507 56.872 53.5667 56.52 52.7027 56.2C51.8707 55.848 51.0227 55.48 50.1587 55.096C49.3267 54.712 48.5587 54.248 47.8547 53.704C47.1507 53.16 46.5747 52.504 46.1267 51.736C45.7107 50.968 45.5027 50.056 45.5027 49C45.5027 47.848 45.7267 46.872 46.1747 46.072C46.6227 45.24 47.2307 44.552 47.9987 44.008C48.7667 43.432 49.6307 43.016 50.5907 42.76C51.5507 42.504 52.5107 42.376 53.4707 42.376C54.1747 42.376 54.8787 42.44 55.5827 42.568C56.3187 42.664 57.0387 42.84 57.7427 43.096C58.4787 43.32 59.1507 43.64 59.7587 44.056L58.3187 47.608ZM79.2718 47.608C78.8878 47.384 78.4558 47.208 77.9758 47.08C77.4958 46.92 76.9998 46.792 76.4878 46.696C75.9758 46.6 75.4478 46.552 74.9038 46.552C74.4878 46.552 74.0558 46.6 73.6078 46.696C73.1598 46.76 72.7278 46.888 72.3118 47.08C71.9278 47.24 71.6078 47.464 71.3518 47.752C71.0958 48.04 70.9678 48.424 70.9678 48.904C70.9678 49.48 71.1758 49.976 71.5918 50.392C72.0398 50.808 72.6158 51.192 73.3198 51.544C74.0238 51.864 74.8078 52.184 75.6718 52.504C76.5358 52.824 77.3838 53.208 78.2158 53.656C79.0798 54.072 79.8638 54.568 80.5678 55.144C81.2718 55.72 81.8318 56.424 82.2478 57.256C82.6958 58.088 82.9198 59.096 82.9198 60.28C82.9198 61.528 82.6798 62.616 82.1998 63.544C81.7198 64.472 81.0798 65.256 80.2798 65.896C79.4798 66.504 78.5678 66.968 77.5438 67.288C76.5198 67.608 75.4638 67.768 74.3758 67.768C72.6478 67.768 70.9838 67.4 69.3838 66.664C67.7838 65.928 66.4238 64.936 65.3038 63.688L67.8478 60.952C68.4558 61.496 69.0798 61.976 69.7198 62.392C70.3598 62.776 71.0318 63.08 71.7358 63.304C72.4718 63.528 73.2238 63.64 73.9918 63.64C74.4718 63.64 74.9678 63.592 75.4798 63.496C75.9918 63.368 76.4558 63.176 76.8718 62.92C77.3198 62.632 77.6718 62.28 77.9278 61.864C78.2158 61.448 78.3598 60.952 78.3598 60.376C78.3598 59.64 78.1358 59.032 77.6878 58.552C77.2718 58.072 76.7118 57.64 76.0078 57.256C75.3038 56.872 74.5198 56.52 73.6558 56.2C72.8238 55.848 71.9758 55.48 71.1118 55.096C70.2798 54.712 69.5118 54.248 68.8078 53.704C68.1038 53.16 67.5278 52.504 67.0798 51.736C66.6638 50.968 66.4558 50.056 66.4558 49C66.4558 47.848 66.6798 46.872 67.1278 46.072C67.5758 45.24 68.1838 44.552 68.9518 44.008C69.7198 43.432 70.5838 43.016 71.5438 42.76C72.5038 42.504 73.4638 42.376 74.4238 42.376C75.1278 42.376 75.8318 42.44 76.5358 42.568C77.2718 42.664 77.9918 42.84 78.6958 43.096C79.4318 43.32 80.1038 43.64 80.7118 44.056L79.2718 47.608ZM97.5872 33.4C98.9312 33.4 100.211 33.576 101.427 33.928C102.675 34.28 103.763 34.888 104.691 35.752C105.651 36.616 106.403 37.8 106.947 39.304C107.491 40.776 107.763 42.648 107.763 44.92C107.763 46.776 107.603 48.392 107.283 49.768C106.963 51.112 106.483 52.248 105.843 53.176C105.235 54.072 104.515 54.776 103.683 55.288L107.955 67H103.299L99.6032 56.68C99.4112 56.744 99.2032 56.776 98.9792 56.776C98.7552 56.776 98.5152 56.792 98.2592 56.824C98.0352 56.824 97.8112 56.824 97.5872 56.824H91.2992V67H86.8352V33.4H97.5872ZM96.3392 52.552C97.4912 52.552 98.4992 52.472 99.3632 52.312C100.227 52.152 100.947 51.816 101.523 51.304C102.099 50.76 102.531 49.992 102.819 49C103.139 47.976 103.299 46.616 103.299 44.92C103.299 43.352 103.139 42.104 102.819 41.176C102.531 40.216 102.099 39.496 101.523 39.016C100.947 38.504 100.227 38.168 99.3632 38.008C98.4992 37.848 97.4912 37.768 96.3392 37.768H91.2992V52.552H96.3392ZM124.417 50.68C124.417 49.656 124.273 48.824 123.985 48.184C123.729 47.544 123.345 47.048 122.833 46.696C122.353 46.312 121.745 46.04 121.009 45.88C120.273 45.72 119.441 45.64 118.513 45.64L118.849 42.52C120.705 42.52 122.257 42.696 123.505 43.048C124.785 43.368 125.809 43.928 126.577 44.728C127.377 45.496 127.953 46.52 128.305 47.8C128.657 49.08 128.833 50.664 128.833 52.552V67C128.481 67.032 128.065 67.08 127.585 67.144C127.105 67.208 126.577 67.256 126.001 67.288C125.425 67.352 124.817 67.384 124.177 67.384C123.569 67.416 122.945 67.448 122.305 67.48C121.697 67.512 121.105 67.528 120.529 67.528C119.089 67.528 117.745 67.4 116.497 67.144C115.281 66.92 114.209 66.504 113.281 65.896C112.353 65.256 111.617 64.408 111.073 63.352C110.561 62.264 110.305 60.92 110.305 59.32V54.856C110.305 53.608 110.481 52.536 110.833 51.64C111.217 50.712 111.729 49.976 112.369 49.432C113.009 48.856 113.729 48.424 114.529 48.136C115.361 47.848 116.225 47.704 117.121 47.704C118.017 47.704 118.913 47.832 119.809 48.088C120.705 48.312 121.553 48.648 122.353 49.096C123.185 49.544 123.873 50.072 124.417 50.68ZM124.417 54.04C124.033 53.816 123.489 53.56 122.785 53.272C122.081 52.952 121.313 52.68 120.481 52.456C119.681 52.232 118.865 52.12 118.033 52.12C117.649 52.12 117.265 52.168 116.881 52.264C116.497 52.36 116.145 52.52 115.825 52.744C115.505 52.968 115.249 53.304 115.057 53.752C114.865 54.168 114.769 54.696 114.769 55.336V58.6C114.769 59.4 114.849 60.104 115.009 60.712C115.169 61.32 115.457 61.832 115.873 62.248C116.289 62.664 116.881 62.984 117.649 63.208C118.449 63.4 119.489 63.496 120.769 63.496C121.089 63.464 121.409 63.448 121.729 63.448C122.081 63.416 122.417 63.384 122.737 63.352C123.057 63.32 123.345 63.304 123.601 63.304C123.857 63.272 124.049 63.256 124.177 63.256C124.337 63.224 124.417 63.208 124.417 63.208V54.04ZM149.402 43L153.818 59.848L158.618 43H163.37L155.69 67H151.034L147.146 51.928L143.21 67H138.506L130.874 43H135.674L140.81 59.848L145.13 43H149.402Z" fill="black"/>
<line x1="51" y1="76.5" x2="111" y2="76.5" stroke="black" stroke-width="3"/>
</svg>
