<svg width="98" height="62" viewBox="0 0 98 62" fill="none" xmlns="http://www.w3.org/2000/svg">
<path d="M48.1194 3.87558L46.7663 29.3397L75.921 29.4162L59.8286 51.2401L35.398 48.1747L26.7128 24.8281L48.1194 3.87558Z" fill="#FB6F92"/>
<path d="M16.6283 25.9607C16.1803 25.7847 15.7403 25.6567 15.3083 25.5767C14.8923 25.4967 14.4763 25.4567 14.0603 25.4567C13.2763 25.4567 12.6043 25.5767 12.0443 25.8167C11.4843 26.0407 11.0523 26.4087 10.7483 26.9207C10.4603 27.4327 10.3163 28.1127 10.3163 28.9607V36.8327C10.3163 37.6647 10.4443 38.3447 10.7003 38.8727C10.9563 39.3847 11.3483 39.7607 11.8763 40.0007C12.4043 40.2247 13.0683 40.3367 13.8683 40.3367C14.1883 40.3367 14.5243 40.3127 14.8763 40.2647C15.2443 40.2007 15.6363 40.1207 16.0523 40.0247C16.4683 39.9127 16.9003 39.7847 17.3483 39.6407L17.6363 40.7447C16.9643 41.0007 16.3003 41.1927 15.6443 41.3207C15.0043 41.4647 14.3803 41.5367 13.7723 41.5367C12.7643 41.5367 11.9003 41.3767 11.1803 41.0567C10.4603 40.7207 9.90826 40.2087 9.52426 39.5207C9.14026 38.8327 8.94826 37.9527 8.94826 36.8807V29.0567C8.94826 27.9367 9.15626 27.0247 9.57226 26.3207C9.98826 25.6167 10.5483 25.0967 11.2523 24.7607C11.9563 24.4247 12.7483 24.2567 13.6283 24.2567C14.2523 24.2567 14.8523 24.3207 15.4283 24.4487C16.0043 24.5767 16.5403 24.7767 17.0363 25.0487L16.6283 25.9607ZM26.6333 40.1447C26.3773 40.4487 26.0653 40.7047 25.6973 40.9127C25.3293 41.1207 24.9373 41.2727 24.5213 41.3687C24.1053 41.4807 23.6973 41.5367 23.2973 41.5367C22.7693 41.5367 22.2813 41.4807 21.8333 41.3687C21.4013 41.2727 21.0093 41.1207 20.6573 40.9127C20.3213 40.7047 20.0333 40.4407 19.7933 40.1207C19.5693 39.8007 19.3933 39.4247 19.2653 38.9927C19.1533 38.5607 19.0973 38.0727 19.0973 37.5287V29.2727H20.4653V37.1927C20.4653 37.9287 20.5773 38.5207 20.8013 38.9687C21.0253 39.4167 21.3533 39.7447 21.7853 39.9527C22.2173 40.1447 22.7373 40.2407 23.3453 40.2407C23.8253 40.2407 24.2653 40.1607 24.6653 40.0007C25.0653 39.8407 25.4093 39.6167 25.6973 39.3287C26.0013 39.0407 26.2333 38.7127 26.3933 38.3447C26.5533 37.9767 26.6333 37.5767 26.6333 37.1447V29.2727H27.9773V41.2967H26.6333V40.1447ZM37.0718 30.7607C36.8638 30.6167 36.6238 30.5047 36.3518 30.4247C36.0958 30.3287 35.8238 30.2567 35.5358 30.2087C35.2638 30.1607 34.9918 30.1367 34.7198 30.1367C34.3998 30.1367 34.0638 30.1767 33.7118 30.2567C33.3758 30.3207 33.0638 30.4327 32.7758 30.5927C32.4878 30.7367 32.2558 30.9287 32.0798 31.1687C31.9038 31.4087 31.8158 31.6967 31.8158 32.0327C31.8158 32.4327 31.9358 32.7687 32.1758 33.0407C32.4318 33.3127 32.7598 33.5607 33.1598 33.7847C33.5598 33.9927 33.9998 34.1927 34.4798 34.3847C34.9598 34.5607 35.4398 34.7607 35.9198 34.9847C36.4158 35.1927 36.8638 35.4407 37.2638 35.7287C37.6638 36.0167 37.9838 36.3687 38.2238 36.7847C38.4798 37.1847 38.6078 37.6807 38.6078 38.2727C38.6078 38.8487 38.4878 39.3527 38.2478 39.7847C38.0078 40.2167 37.6878 40.5767 37.2878 40.8647C36.8878 41.1527 36.4398 41.3687 35.9438 41.5127C35.4638 41.6567 34.9678 41.7287 34.4558 41.7287C33.6078 41.7287 32.7838 41.5447 31.9838 41.1767C31.1838 40.8087 30.5038 40.3047 29.9438 39.6647L30.6878 38.8727C31.0558 39.2247 31.4318 39.5207 31.8158 39.7607C32.1998 40.0007 32.6078 40.1847 33.0398 40.3127C33.4878 40.4247 33.9598 40.4807 34.4558 40.4807C34.7598 40.4807 35.0798 40.4407 35.4158 40.3607C35.7518 40.2807 36.0638 40.1527 36.3518 39.9767C36.6558 39.7847 36.8958 39.5527 37.0718 39.2807C37.2638 39.0087 37.3598 38.6807 37.3598 38.2967C37.3598 37.8647 37.2318 37.4967 36.9758 37.1927C36.7358 36.8727 36.4158 36.6007 36.0158 36.3767C35.6158 36.1367 35.1678 35.9207 34.6718 35.7287C34.1918 35.5367 33.7038 35.3367 33.2078 35.1287C32.7278 34.9207 32.2878 34.6807 31.8878 34.4087C31.4878 34.1367 31.1598 33.8167 30.9038 33.4487C30.6638 33.0647 30.5438 32.6087 30.5438 32.0807C30.5438 31.5687 30.6558 31.1287 30.8798 30.7607C31.1038 30.3767 31.3998 30.0567 31.7678 29.8007C32.1518 29.5287 32.5758 29.3287 33.0398 29.2007C33.5038 29.0727 33.9758 29.0087 34.4558 29.0087C34.7758 29.0087 35.1038 29.0327 35.4398 29.0807C35.7758 29.1127 36.1278 29.1927 36.4958 29.3207C36.8638 29.4327 37.2398 29.6087 37.6238 29.8487L37.0718 30.7607ZM47.3843 30.7607C47.1763 30.6167 46.9363 30.5047 46.6643 30.4247C46.4083 30.3287 46.1363 30.2567 45.8483 30.2087C45.5763 30.1607 45.3043 30.1367 45.0323 30.1367C44.7123 30.1367 44.3763 30.1767 44.0243 30.2567C43.6883 30.3207 43.3763 30.4327 43.0883 30.5927C42.8003 30.7367 42.5683 30.9287 42.3923 31.1687C42.2163 31.4087 42.1283 31.6967 42.1283 32.0327C42.1283 32.4327 42.2483 32.7687 42.4883 33.0407C42.7443 33.3127 43.0723 33.5607 43.4723 33.7847C43.8723 33.9927 44.3123 34.1927 44.7923 34.3847C45.2723 34.5607 45.7523 34.7607 46.2323 34.9847C46.7283 35.1927 47.1763 35.4407 47.5763 35.7287C47.9763 36.0167 48.2963 36.3687 48.5363 36.7847C48.7923 37.1847 48.9203 37.6807 48.9203 38.2727C48.9203 38.8487 48.8003 39.3527 48.5603 39.7847C48.3203 40.2167 48.0003 40.5767 47.6003 40.8647C47.2003 41.1527 46.7523 41.3687 46.2563 41.5127C45.7763 41.6567 45.2803 41.7287 44.7683 41.7287C43.9203 41.7287 43.0963 41.5447 42.2963 41.1767C41.4963 40.8087 40.8163 40.3047 40.2563 39.6647L41.0003 38.8727C41.3683 39.2247 41.7443 39.5207 42.1283 39.7607C42.5123 40.0007 42.9203 40.1847 43.3523 40.3127C43.8003 40.4247 44.2723 40.4807 44.7683 40.4807C45.0723 40.4807 45.3923 40.4407 45.7283 40.3607C46.0643 40.2807 46.3763 40.1527 46.6643 39.9767C46.9683 39.7847 47.2083 39.5527 47.3843 39.2807C47.5763 39.0087 47.6723 38.6807 47.6723 38.2967C47.6723 37.8647 47.5443 37.4967 47.2883 37.1927C47.0483 36.8727 46.7283 36.6007 46.3283 36.3767C45.9283 36.1367 45.4803 35.9207 44.9843 35.7287C44.5043 35.5367 44.0163 35.3367 43.5203 35.1287C43.0403 34.9207 42.6003 34.6807 42.2003 34.4087C41.8003 34.1367 41.4723 33.8167 41.2163 33.4487C40.9763 33.0647 40.8563 32.6087 40.8563 32.0807C40.8563 31.5687 40.9683 31.1287 41.1923 30.7607C41.4163 30.3767 41.7123 30.0567 42.0803 29.8007C42.4643 29.5287 42.8883 29.3287 43.3523 29.2007C43.8163 29.0727 44.2883 29.0087 44.7683 29.0087C45.0883 29.0087 45.4163 29.0327 45.7523 29.0807C46.0883 29.1127 46.4403 29.1927 46.8083 29.3207C47.1763 29.4327 47.5523 29.6087 47.9363 29.8487L47.3843 30.7607ZM56.5459 24.4967C57.3139 24.4967 57.9939 24.5927 58.5859 24.7847C59.1779 24.9607 59.6739 25.2567 60.0739 25.6727C60.4899 26.0887 60.8019 26.6487 61.0099 27.3527C61.2179 28.0407 61.3219 28.8967 61.3219 29.9207C61.3219 30.8327 61.2419 31.6167 61.0819 32.2727C60.9219 32.9287 60.6739 33.4727 60.3379 33.9047C60.0179 34.3367 59.6019 34.6807 59.0899 34.9367L61.4179 41.2967H60.0499L57.8659 35.2967C57.7379 35.3287 57.6019 35.3527 57.4579 35.3687C57.3139 35.3847 57.1619 35.4007 57.0019 35.4167C56.8579 35.4167 56.7059 35.4167 56.5459 35.4167H52.2499V41.2967H50.8819V24.4967H56.5459ZM56.6659 34.0967C57.1299 34.0967 57.5539 34.0487 57.9379 33.9527C58.3379 33.8567 58.6899 33.6727 58.9939 33.4007C59.2979 33.1127 59.5299 32.6887 59.6899 32.1287C59.8659 31.5687 59.9539 30.8327 59.9539 29.9207C59.9539 29.0727 59.8659 28.3767 59.6899 27.8327C59.5299 27.2887 59.2979 26.8727 58.9939 26.5847C58.7059 26.2807 58.3619 26.0727 57.9619 25.9607C57.5619 25.8327 57.1299 25.7687 56.6659 25.7687H52.2499V34.0967H56.6659ZM70.4179 32.8967C70.4179 32.3047 70.3139 31.8247 70.1059 31.4567C69.9139 31.0887 69.6419 30.8087 69.2899 30.6167C68.9539 30.4247 68.5619 30.2967 68.1139 30.2327C67.6659 30.1527 67.2019 30.1127 66.7219 30.1127L66.7699 29.0807C67.7459 29.0807 68.5539 29.1767 69.1939 29.3687C69.8339 29.5447 70.3379 29.8407 70.7059 30.2567C71.0899 30.6567 71.3619 31.2007 71.5219 31.8887C71.6819 32.5607 71.7619 33.3927 71.7619 34.3847V41.2967C71.7779 41.2967 71.6899 41.3047 71.4979 41.3207C71.3219 41.3367 71.0819 41.3527 70.7779 41.3687C70.4899 41.4007 70.1699 41.4247 69.8179 41.4407C69.4819 41.4727 69.1459 41.4967 68.8099 41.5127C68.4899 41.5287 68.2099 41.5367 67.9699 41.5367C67.2019 41.5527 66.4819 41.5047 65.8099 41.3927C65.1539 41.2807 64.5779 41.0727 64.0819 40.7687C63.6019 40.4487 63.2179 40.0007 62.9299 39.4247C62.6579 38.8487 62.5219 38.1207 62.5219 37.2407V35.2487C62.5219 34.5767 62.6179 34.0087 62.8099 33.5447C63.0179 33.0807 63.2979 32.7127 63.6499 32.4407C64.0019 32.1527 64.3939 31.9447 64.8259 31.8167C65.2739 31.6887 65.7379 31.6247 66.2179 31.6247C66.7459 31.6247 67.2579 31.6887 67.7539 31.8167C68.2499 31.9287 68.7219 32.0807 69.1699 32.2727C69.6339 32.4647 70.0499 32.6727 70.4179 32.8967ZM70.4179 34.0247C70.0019 33.8007 69.5539 33.5927 69.0739 33.4007C68.5939 33.2087 68.1059 33.0567 67.6099 32.9447C67.1139 32.8327 66.6099 32.7767 66.0979 32.7767C65.8899 32.7767 65.6579 32.8087 65.4019 32.8727C65.1459 32.9367 64.8979 33.0567 64.6579 33.2327C64.4179 33.3927 64.2179 33.6407 64.0579 33.9767C63.9139 34.3127 63.8419 34.7527 63.8419 35.2967V37.0727C63.8419 37.6487 63.8979 38.1527 64.0099 38.5847C64.1379 39.0167 64.3459 39.3767 64.6339 39.6647C64.9379 39.9367 65.3539 40.1367 65.8819 40.2647C66.4099 40.3767 67.0739 40.4167 67.8739 40.3847C68.1939 40.3687 68.4819 40.3527 68.7379 40.3367C69.0099 40.3207 69.2499 40.3047 69.4579 40.2887C69.6659 40.2567 69.8419 40.2407 69.9859 40.2407C70.1299 40.2247 70.2339 40.2167 70.2979 40.2167C70.3779 40.2007 70.4179 40.1927 70.4179 40.1927V34.0247ZM81.4481 29.3207L84.0881 39.9287L87.3041 29.3207H88.7201L84.9761 41.2967H83.1281L80.7281 31.5767L78.2801 41.2967H76.4081L72.7601 29.3207H74.1521L77.3921 39.9287L80.0801 29.3207H81.4481Z" fill="white"/>
</svg>
