<svg width="98" height="62" viewBox="0 0 98 62" fill="none" xmlns="http://www.w3.org/2000/svg">
<path d="M48.1194 4.57892L46.7663 30.043L75.921 30.1195L59.8286 51.9434L35.398 48.8781L26.7128 25.5314L48.1194 4.57892Z" fill="#783829"/>
<path d="M16.0384 27.552C15.6864 27.408 15.2944 27.296 14.8624 27.216C14.4464 27.136 14.0464 27.096 13.6624 27.096C13.0544 27.096 12.5344 27.184 12.1024 27.36C11.6864 27.536 11.3584 27.816 11.1184 28.2C10.8944 28.568 10.7824 29.056 10.7824 29.664V37.536C10.7824 38.144 10.8864 38.632 11.0944 39C11.3024 39.368 11.5984 39.64 11.9824 39.816C12.3824 39.976 12.8784 40.056 13.4704 40.056C13.9024 40.056 14.3344 40.016 14.7664 39.936C15.2144 39.856 15.6224 39.76 15.9904 39.648C16.3744 39.536 16.6704 39.456 16.8784 39.408L17.2384 41.448C16.5504 41.704 15.8784 41.904 15.2224 42.048C14.5664 42.192 13.9344 42.264 13.3264 42.264C12.3344 42.264 11.4784 42.096 10.7584 41.76C10.0544 41.408 9.51038 40.88 9.12638 40.176C8.74238 39.472 8.55038 38.608 8.55038 37.584V29.736C8.55038 28.664 8.75838 27.776 9.17438 27.072C9.59038 26.352 10.1424 25.816 10.8304 25.464C11.5344 25.112 12.3264 24.936 13.2064 24.936C13.7984 24.936 14.3824 25 14.9584 25.128C15.5344 25.256 16.0944 25.464 16.6384 25.752L16.0384 27.552ZM25.4417 41.208C25.2977 41.368 25.0817 41.528 24.7937 41.688C24.5057 41.832 24.1777 41.952 23.8097 42.048C23.4577 42.144 23.1057 42.192 22.7537 42.192C22.3377 42.192 21.9297 42.144 21.5297 42.048C21.1457 41.968 20.7777 41.84 20.4257 41.664C20.0897 41.472 19.7937 41.224 19.5377 40.92C19.2977 40.6 19.1057 40.224 18.9617 39.792C18.8337 39.344 18.7697 38.816 18.7697 38.208V29.976H21.0257V38.064C21.0257 38.56 21.0977 38.96 21.2417 39.264C21.4017 39.568 21.6257 39.792 21.9137 39.936C22.2017 40.064 22.5537 40.128 22.9697 40.128C23.3057 40.128 23.6257 40.072 23.9297 39.96C24.2337 39.832 24.4977 39.664 24.7217 39.456C24.9457 39.248 25.1217 39.008 25.2497 38.736C25.3777 38.448 25.4417 38.136 25.4417 37.8V29.976H27.6497V42H25.4417V41.208ZM36.6236 32.304C36.4316 32.192 36.2156 32.104 35.9756 32.04C35.7356 31.96 35.4876 31.896 35.2316 31.848C34.9756 31.8 34.7116 31.776 34.4396 31.776C34.2316 31.776 34.0156 31.8 33.7916 31.848C33.5676 31.88 33.3516 31.944 33.1436 32.04C32.9516 32.12 32.7916 32.232 32.6636 32.376C32.5356 32.52 32.4716 32.712 32.4716 32.952C32.4716 33.24 32.5756 33.488 32.7836 33.696C33.0076 33.904 33.2956 34.096 33.6476 34.272C33.9996 34.432 34.3916 34.592 34.8236 34.752C35.2556 34.912 35.6796 35.104 36.0956 35.328C36.5276 35.536 36.9196 35.784 37.2716 36.072C37.6236 36.36 37.9036 36.712 38.1116 37.128C38.3356 37.544 38.4476 38.048 38.4476 38.64C38.4476 39.264 38.3276 39.808 38.0876 40.272C37.8476 40.736 37.5276 41.128 37.1276 41.448C36.7276 41.752 36.2716 41.984 35.7596 42.144C35.2476 42.304 34.7196 42.384 34.1756 42.384C33.3116 42.384 32.4796 42.2 31.6796 41.832C30.8796 41.464 30.1996 40.968 29.6396 40.344L30.9116 38.976C31.2156 39.248 31.5276 39.488 31.8476 39.696C32.1676 39.888 32.5036 40.04 32.8556 40.152C33.2236 40.264 33.5996 40.32 33.9836 40.32C34.2236 40.32 34.4716 40.296 34.7276 40.248C34.9836 40.184 35.2156 40.088 35.4236 39.96C35.6476 39.816 35.8236 39.64 35.9516 39.432C36.0956 39.224 36.1676 38.976 36.1676 38.688C36.1676 38.32 36.0556 38.016 35.8316 37.776C35.6236 37.536 35.3436 37.32 34.9916 37.128C34.6396 36.936 34.2476 36.76 33.8156 36.6C33.3996 36.424 32.9756 36.24 32.5436 36.048C32.1276 35.856 31.7436 35.624 31.3916 35.352C31.0396 35.08 30.7516 34.752 30.5276 34.368C30.3196 33.984 30.2156 33.528 30.2156 33C30.2156 32.424 30.3276 31.936 30.5516 31.536C30.7756 31.12 31.0796 30.776 31.4636 30.504C31.8476 30.216 32.2796 30.008 32.7596 29.88C33.2396 29.752 33.7196 29.688 34.1996 29.688C34.5516 29.688 34.9036 29.72 35.2556 29.784C35.6236 29.832 35.9836 29.92 36.3356 30.048C36.7036 30.16 37.0396 30.32 37.3436 30.528L36.6236 32.304ZM47.1002 32.304C46.9082 32.192 46.6922 32.104 46.4522 32.04C46.2122 31.96 45.9642 31.896 45.7082 31.848C45.4522 31.8 45.1882 31.776 44.9162 31.776C44.7082 31.776 44.4922 31.8 44.2682 31.848C44.0442 31.88 43.8282 31.944 43.6202 32.04C43.4282 32.12 43.2682 32.232 43.1402 32.376C43.0122 32.52 42.9482 32.712 42.9482 32.952C42.9482 33.24 43.0522 33.488 43.2602 33.696C43.4842 33.904 43.7722 34.096 44.1242 34.272C44.4762 34.432 44.8682 34.592 45.3002 34.752C45.7322 34.912 46.1562 35.104 46.5722 35.328C47.0042 35.536 47.3962 35.784 47.7482 36.072C48.1002 36.36 48.3802 36.712 48.5882 37.128C48.8122 37.544 48.9242 38.048 48.9242 38.64C48.9242 39.264 48.8042 39.808 48.5642 40.272C48.3242 40.736 48.0042 41.128 47.6042 41.448C47.2042 41.752 46.7482 41.984 46.2362 42.144C45.7242 42.304 45.1962 42.384 44.6522 42.384C43.7882 42.384 42.9562 42.2 42.1562 41.832C41.3562 41.464 40.6762 40.968 40.1162 40.344L41.3882 38.976C41.6922 39.248 42.0042 39.488 42.3242 39.696C42.6442 39.888 42.9802 40.04 43.3322 40.152C43.7002 40.264 44.0762 40.32 44.4602 40.32C44.7002 40.32 44.9482 40.296 45.2042 40.248C45.4602 40.184 45.6922 40.088 45.9002 39.96C46.1242 39.816 46.3002 39.64 46.4282 39.432C46.5722 39.224 46.6442 38.976 46.6442 38.688C46.6442 38.32 46.5322 38.016 46.3082 37.776C46.1002 37.536 45.8202 37.32 45.4682 37.128C45.1162 36.936 44.7242 36.76 44.2922 36.6C43.8762 36.424 43.4522 36.24 43.0202 36.048C42.6042 35.856 42.2202 35.624 41.8682 35.352C41.5162 35.08 41.2282 34.752 41.0042 34.368C40.7962 33.984 40.6922 33.528 40.6922 33C40.6922 32.424 40.8042 31.936 41.0282 31.536C41.2522 31.12 41.5562 30.776 41.9402 30.504C42.3242 30.216 42.7562 30.008 43.2362 29.88C43.7162 29.752 44.1962 29.688 44.6762 29.688C45.0282 29.688 45.3802 29.72 45.7322 29.784C46.1002 29.832 46.4602 29.92 46.8122 30.048C47.1802 30.16 47.5162 30.32 47.8202 30.528L47.1002 32.304ZM56.2579 25.2C56.9299 25.2 57.5699 25.288 58.1779 25.464C58.8019 25.64 59.3459 25.944 59.8099 26.376C60.2899 26.808 60.6659 27.4 60.9379 28.152C61.2099 28.888 61.3459 29.824 61.3459 30.96C61.3459 31.888 61.2659 32.696 61.1059 33.384C60.9459 34.056 60.7059 34.624 60.3859 35.088C60.0819 35.536 59.7219 35.888 59.3059 36.144L61.4419 42H59.1139L57.2659 36.84C57.1699 36.872 57.0659 36.888 56.9539 36.888C56.8419 36.888 56.7219 36.896 56.5939 36.912C56.4819 36.912 56.3699 36.912 56.2579 36.912H53.1139V42H50.8819V25.2H56.2579ZM55.6339 34.776C56.2099 34.776 56.7139 34.736 57.1459 34.656C57.5779 34.576 57.9379 34.408 58.2259 34.152C58.5139 33.88 58.7299 33.496 58.8739 33C59.0339 32.488 59.1139 31.808 59.1139 30.96C59.1139 30.176 59.0339 29.552 58.8739 29.088C58.7299 28.608 58.5139 28.248 58.2259 28.008C57.9379 27.752 57.5779 27.584 57.1459 27.504C56.7139 27.424 56.2099 27.384 55.6339 27.384H53.1139V34.776H55.6339ZM69.6728 33.84C69.6728 33.328 69.6008 32.912 69.4568 32.592C69.3288 32.272 69.1368 32.024 68.8808 31.848C68.6408 31.656 68.3368 31.52 67.9688 31.44C67.6008 31.36 67.1848 31.32 66.7208 31.32L66.8888 29.76C67.8168 29.76 68.5928 29.848 69.2168 30.024C69.8568 30.184 70.3688 30.464 70.7528 30.864C71.1528 31.248 71.4408 31.76 71.6168 32.4C71.7928 33.04 71.8808 33.832 71.8808 34.776V42C71.7048 42.016 71.4968 42.04 71.2568 42.072C71.0168 42.104 70.7528 42.128 70.4648 42.144C70.1768 42.176 69.8728 42.192 69.5528 42.192C69.2488 42.208 68.9368 42.224 68.6168 42.24C68.3128 42.256 68.0168 42.264 67.7288 42.264C67.0088 42.264 66.3368 42.2 65.7128 42.072C65.1048 41.96 64.5688 41.752 64.1048 41.448C63.6408 41.128 63.2728 40.704 63.0008 40.176C62.7448 39.632 62.6168 38.96 62.6168 38.16V35.928C62.6168 35.304 62.7048 34.768 62.8808 34.32C63.0728 33.856 63.3288 33.488 63.6488 33.216C63.9688 32.928 64.3288 32.712 64.7288 32.568C65.1448 32.424 65.5768 32.352 66.0248 32.352C66.4728 32.352 66.9208 32.416 67.3688 32.544C67.8168 32.656 68.2408 32.824 68.6408 33.048C69.0568 33.272 69.4008 33.536 69.6728 33.84ZM69.6728 35.52C69.4808 35.408 69.2088 35.28 68.8568 35.136C68.5048 34.976 68.1208 34.84 67.7048 34.728C67.3048 34.616 66.8968 34.56 66.4808 34.56C66.2888 34.56 66.0968 34.584 65.9048 34.632C65.7128 34.68 65.5368 34.76 65.3768 34.872C65.2168 34.984 65.0888 35.152 64.9928 35.376C64.8968 35.584 64.8488 35.848 64.8488 36.168V37.8C64.8488 38.2 64.8888 38.552 64.9688 38.856C65.0488 39.16 65.1928 39.416 65.4008 39.624C65.6088 39.832 65.9048 39.992 66.2888 40.104C66.6888 40.2 67.2088 40.248 67.8488 40.248C68.0088 40.232 68.1688 40.224 68.3288 40.224C68.5048 40.208 68.6728 40.192 68.8328 40.176C68.9928 40.16 69.1368 40.152 69.2648 40.152C69.3928 40.136 69.4888 40.128 69.5528 40.128C69.6328 40.112 69.6728 40.104 69.6728 40.104V35.52ZM82.1653 30L84.3733 38.424L86.7733 30H89.1493L85.3093 42H82.9813L81.0373 34.464L79.0693 42H76.7173L72.9013 30H75.3013L77.8693 38.424L80.0293 30H82.1653Z" fill="black"/>
</svg>
