<svg width="34" height="31" viewBox="0 0 34 31" fill="none" xmlns="http://www.w3.org/2000/svg">
<path d="M17 31L14.5833 28.8333C11.7778 26.3055 9.45833 24.125 7.625 22.2917C5.79166 20.4583 4.33333 18.8194 3.25 17.375C2.16666 15.9028 1.40277 14.5555 0.958328 13.3333C0.541662 12.1111 0.333328 10.8611 0.333328 9.58332C0.333328 6.97221 1.20833 4.79166 2.95833 3.04166C4.70833 1.29166 6.88889 0.416656 9.5 0.416656C10.9444 0.416656 12.3194 0.722212 13.625 1.33332C14.9306 1.94443 16.0556 2.80555 17 3.91666C17.9444 2.80555 19.0694 1.94443 20.375 1.33332C21.6806 0.722212 23.0556 0.416656 24.5 0.416656C27.1111 0.416656 29.2917 1.29166 31.0417 3.04166C32.7917 4.79166 33.6667 6.97221 33.6667 9.58332C33.6667 10.8611 33.4444 12.1111 33 13.3333C32.5833 14.5555 31.8333 15.9028 30.75 17.375C29.6667 18.8194 28.2083 20.4583 26.375 22.2917C24.5417 24.125 22.2222 26.3055 19.4167 28.8333L17 31ZM17 26.5C19.6667 24.1111 21.8611 22.0694 23.5833 20.375C25.3056 18.6528 26.6667 17.1667 27.6667 15.9167C28.6667 14.6389 29.3611 13.5139 29.75 12.5417C30.1389 11.5417 30.3333 10.5555 30.3333 9.58332C30.3333 7.91666 29.7778 6.52777 28.6667 5.41666C27.5556 4.30555 26.1667 3.74999 24.5 3.74999C23.1944 3.74999 21.9861 4.12499 20.875 4.87499C19.7639 5.59721 19 6.52777 18.5833 7.66666H15.4167C15 6.52777 14.2361 5.59721 13.125 4.87499C12.0139 4.12499 10.8056 3.74999 9.5 3.74999C7.83333 3.74999 6.44444 4.30555 5.33333 5.41666C4.22222 6.52777 3.66666 7.91666 3.66666 9.58332C3.66666 10.5555 3.86111 11.5417 4.25 12.5417C4.63888 13.5139 5.33333 14.6389 6.33333 15.9167C7.33333 17.1667 8.69444 18.6528 10.4167 20.375C12.1389 22.0694 14.3333 24.1111 17 26.5Z" fill="#1D1B20"/>
</svg>
