<svg width="34" height="34" viewBox="0 0 34 34" fill="none" xmlns="http://www.w3.org/2000/svg">
<path d="M6.75 25.5C8.16667 24.4167 9.75 23.5625 11.5 22.9375C13.25 22.3125 15.0833 22 17 22C18.9167 22 20.75 22.3125 22.5 22.9375C24.25 23.5625 25.8333 24.4167 27.25 25.5C28.2222 24.3611 28.9792 23.0695 29.5208 21.625C30.0625 20.1806 30.3333 18.6389 30.3333 17C30.3333 13.3056 29.0347 10.1597 26.4375 7.56251C23.8403 4.96529 20.6944 3.66668 17 3.66668C13.3056 3.66668 10.1597 4.96529 7.5625 7.56251C4.96528 10.1597 3.66667 13.3056 3.66667 17C3.66667 18.6389 3.9375 20.1806 4.47917 21.625C5.02084 23.0695 5.77778 24.3611 6.75 25.5ZM17 18.6667C15.3611 18.6667 13.9792 18.1042 12.8542 16.9792C11.7292 15.8542 11.1667 14.4722 11.1667 12.8333C11.1667 11.1945 11.7292 9.81251 12.8542 8.68751C13.9792 7.56251 15.3611 7.00001 17 7.00001C18.6389 7.00001 20.0208 7.56251 21.1458 8.68751C22.2708 9.81251 22.8333 11.1945 22.8333 12.8333C22.8333 14.4722 22.2708 15.8542 21.1458 16.9792C20.0208 18.1042 18.6389 18.6667 17 18.6667ZM17 33.6667C14.6944 33.6667 12.5278 33.2292 10.5 32.3542C8.47222 31.4792 6.70834 30.2917 5.20834 28.7917C3.70834 27.2917 2.52084 25.5278 1.64584 23.5C0.770836 21.4722 0.333336 19.3056 0.333336 17C0.333336 14.6945 0.770836 12.5278 1.64584 10.5C2.52084 8.47223 3.70834 6.70834 5.20834 5.20834C6.70834 3.70834 8.47222 2.52084 10.5 1.64584C12.5278 0.770844 14.6944 0.333344 17 0.333344C19.3056 0.333344 21.4722 0.770844 23.5 1.64584C25.5278 2.52084 27.2917 3.70834 28.7917 5.20834C30.2917 6.70834 31.4792 8.47223 32.3542 10.5C33.2292 12.5278 33.6667 14.6945 33.6667 17C33.6667 19.3056 33.2292 21.4722 32.3542 23.5C31.4792 25.5278 30.2917 27.2917 28.7917 28.7917C27.2917 30.2917 25.5278 31.4792 23.5 32.3542C21.4722 33.2292 19.3056 33.6667 17 33.6667Z" fill="#1D1B20"/>
</svg>
